<svg xmlns="http://www.w3.org/2000/svg">
<defs>
<font id="UnifrakturCook-Bold" horiz-adv-x="0" >
  <font-face 
    font-family="UnifrakturCook"
    font-weight="700"
    font-stretch="normal"
    units-per-em="2048"
    panose-1="2 1 8 2 7 3 2 2 2 4"
    ascent="1638"
    descent="-410"
    x-height="1080"
    cap-height="1562"
    bbox="-785 -570 2484 2110"
    underline-thickness="0"
    underline-position="0"
    unicode-range="U+0020-FB05"
  />
<missing-glyph horiz-adv-x="2027" 
d="M899 1902l78 5q37 0 72.5 -13t60 -13t40 2.5t26.5 15.5q26 31 48 116.5t66 94.5h7q4 0 28 -49t39.5 -75.5t25.5 -47.5q29 -61 29 -94l-9 -78q0 -44 20.5 -87t20.5 -88t-39 -79q0 -7 13.5 -7t13.5 -5h-37q-12 -5 -22 -15l110 -41q0 -3 1 -3t1 -2l-2 -3l-3 3q-5 0 -8.5 2.5
t-6.5 -2.5q-2 0 -3.5 5t-5.5 5t-7 -3l-15 8h-5q-15 0 -33 10.5t-33.5 10.5t-25.5 -8q-8 -10 -8 -11.5t3 -1.5l36 -20q-37 10 -44 17q-5 -2 -17 -3.5t-22 -9.5q-25 -18 -25 -68.5t28.5 -114t38.5 -126.5q13 -53 13 -106l-4 -73q0 -51 13 -100q3 0 24.5 37t48.5 82
q66 111 83 132q27 49 56 94.5t49 99.5l8 16q6 45 28.5 94t22.5 109.5t-10 100t-24 77.5q-35 100 -35 144.5t12 72.5t52 65h5q6 0 21 5l64 -15q90 -64 117 -258q8 -52 8 -96q0 -241 -196 -528q0 -2 -8 -5q-16 -22 -43 -57t-53 -70q-60 -85 -60 -108q-72 -102 -72 -168
q2 -3 7.5 -3t10.5 4t18 4q66 25 121 25t84 -28l41 -51q54 -105 54 -173t-49 -110t-112 -69t-121.5 -41.5t-76.5 -19.5q-44 -2 -92.5 -13.5t-76.5 -17.5q-7 -15 -6 -34.5t-27 -24.5l-13 3q-21 -20 -69 -20l-31 7l-7 -2h-3l-36 20l-13 26h-43l-18 -46q-11 -5 -20 -5t-29 5
l-5 -18q-5 -5 -10 -5t-13 -5l-35 25l-3 -5h-4v5q-5 -2 -6 -4.5t-3.5 -5t-2.5 -5.5h-5q-30 18 -30 69q-16 8 -37 6.5t-38 3.5l-56 8q-46 0 -102.5 16.5t-61.5 21.5q-115 29 -171.5 51.5t-92.5 22.5h-59l-17 6l-75 -13q34 -35 36.5 -63.5t-7.5 -46.5l-52 -23q-9 -15 -12 -15
q0 -4 -19 -21l-30 -5l-7 7l-49 22q-9 0 -9 -17v-5q0 -2 4 -2l59 -28q5 -11 5 -19.5t-19 -26.5q-3 0 -18 -5h-12l-24 10l-25 28l-15 -13q0 -12 12.5 -17t28 -12t28 -14.5t12.5 -20t-5 -22.5v-6q15 -10 33.5 -12.5t18.5 -29.5t-12.5 -34.5t-31.5 -7.5l-54 5l-5 -3q-2 0 -2 -2

<glyph glyph-name=".notdef" horiz-adv-x="2027" 
d="M899 1902l78 5q37 0 72.5 -13t60 -13t40 2.5t26.5 15.5q26 31 48 116.5t66 94.5h7q4 0 28 -49t39.5 -75.5t25.5 -47.5q29 -61 29 -94l-9 -78q0 -44 20.5 -87t20.5 -88t-39 -79q0 -7 13.5 -7t13.5 -5h-37q-12 -5 -22 -15l110 -41q0 -3 1 -3t1 -2l-2 -3l-3 3q-5 0 -8.5 2.5
t-6.5 -2.5q-2 0 -3.5 5t-5.5 5t-7 -3l-15 8h-5q-15 0 -33 10.5t-33.5 10.5t-25.5 -8q-8 -10 -8 -11.5t3 -1.5l36 -20q-37 10 -44 17q-5 -2 -17 -3.5t-22 -9.5q-25 -18 -25 -68.5t28.5 -114t38.5 -126.5q13 -53 13 -106l-4 -73q0 -51 13 -100q3 0 24.5 37t48.5 82
q66 111 83 132q27 49 56 94.5t49 99.5l8 16q6 45 28.5 94t22.5 109.5t-10 100t-24 77.5q-35 100 -35 144.5t12 72.5t52 65h5q6 0 21 5l64 -15q90 -64 117 -258q8 -52 8 -96q0 -241 -196 -528q0 -2 -8 -5q-16 -22 -43 -57t-53 -70q-60 -85 -60 -108q-72 -102 -72 -168
q2 -3 7.5 -3t10.5 4t18 4q66 25 121 25t84 -28l41 -51q54 -105 54 -173t-49 -110t-112 -69t-121.5 -41.5t-76.5 -19.5q-44 -2 -92.5 -13.5t-76.5 -17.5q-7 -15 -6 -34.5t-27 -24.5l-13 3q-21 -20 -69 -20l-31 7l-7 -2h-3l-36 20l-13 26h-43l-18 -46q-11 -5 -20 -5t-29 5
l-5 -18q-5 -5 -10 -5t-13 -5l-35 25l-3 -5h-4v5q-5 -2 -6 -4.5t-3.5 -5t-2.5 -5.5h-5q-30 18 -30 69q-16 8 -37 6.5t-38 3.5l-56 8q-46 0 -102.5 16.5t-61.5 21.5q-115 29 -171.5 51.5t-92.5 22.5h-59l-17 6l-75 -13q34 -35 36.5 -63.5t-7.5 -46.5l-52 -23q-9 -15 -12 -15
q0 -4 -19 -21l-30 -5l-7 7l-49 22q-9 0 -9 -17v-5q0 -2 4 -2l59 -28q5 -11 5 -19.5t-19 -26.5q-3 0 -18 -5h-12l-24 10l-25 28l-15 -13q0 -12 12.5 -17t28 -12t28 -14.5t12.5 -20t-5 -22.5v-6q15 -10 33.5 -12.5t18.5 -29.5t-12.5 -34.5t-31.5 -7.5l-54 5l-5 -3q-2 0 -2 -2
l51 -98l-5 -10q-21 0 -50 81q-6 17 -6 24.5t1 11t-1 6.5h-13q-2 -3 -2 -12v-18q0 -9 2 -21l35 -57l-5 -10h-7q-10 25 -27 49.5t-17 58.5q7 7 7 12t-18.5 28.5t-18.5 42.5t20 49q-5 17 -5 38.5t20.5 35.5t23 27t14.5 32l54 82l8 22l19 12h7l28 41l56 18h41l51 21l105 23
q3 2 3 5q-29 85 -29 146t19.5 89t53.5 62l41 28l10 2l20 8h-3h3q2 0 7 2q89 -13 159 -61q4 0 21 45q34 87 51.5 118.5t26.5 81.5t15.5 103.5t13 107.5t28.5 105q5 49 27 96t22 93l-2 24l-39 22l-43 -12l-13 2q-28 -7 -47.5 -24t-36 -17t-19 1t-5.5 1l134 59l-39 31
q-2 0 -24 -10t-25 -10q8 8 44 25q-22 24 -41.5 48t-19.5 60t15 66.5t15 67.5t-18 120q0 41 34 107q62 118 71 118h13q7 0 16.5 -24.5t21.5 -53.5q30 -78 44 -89q22 -15 57 -15zM872 1477q0 -13 50 -13q112 0 112 41q0 12 -26 33t-28.5 29t2.5 18v5q27 7 80 7q42 -10 47 -26
v-5l-57 -56v-15q3 -10 10 -10l28 -8q14 -5 25 -9t43 -4t58 18l-124 20l-15 15q3 17 13 19q2 -2 12 -2h16q8 0 43.5 1t94 -5t116.5 -9q13 20 30 37t17 38t-11 42t-24 42q-35 52 -35 75.5t15.5 44t15.5 58t-24.5 80.5t-30.5 66t-8.5 33t-6.5 23q-12 34 -15 34
q-19 0 -28.5 -29.5t-13.5 -41t-3 -15t1 -18.5v-73q0 -46 11 -80q-2 -5 -7 -10q-22 26 -22 63l1 35q0 27 -3 51q-12 -41 -30.5 -81.5t-60 -40.5t-78 12.5t-71.5 12.5l-80 -8q-79 0 -112 64q-5 -3 2.5 -24.5t7.5 -78.5q-12 -31 -23 -20v49q0 38 -8 68q-16 60 -16 83q5 0 8 3
l-5 44q0 2 -8 10l-7 -5l2 2q-10 0 -75 -183l-12 -34q0 -34 22 -58.5t22 -50t-5 -42t-12 -29.5q-18 -30 -18 -47t7.5 -47.5t19.5 -30.5l18 2v-5l-15 -2l10 -27l13 -5l164 34l-134 -2q0 2 1.5 3.5t-3.5 6.5l2 2l42 3q2 2 10 2h75q71 0 71 -15q0 -2 -5 -2h7q10 0 20 -3
q0 -12 -5 -19h-10q-7 -15 -7 -17h2q-15 -15 -40.5 -15t-44.5 -8zM-69 -15h-5q3 0 3 -24l10 -7q7 2 17 12zM-90 2h-13q-5 -5 -5 -31.5t38.5 -48.5t81.5 -22h13l14 12q0 24 -8 29l-24 8q-20 0 -30 2l-26 -7q0 -3 -1 -3t-1 -2.5t7 -2.5l31 5l20 -2l5 -10q0 -3 3 -3
q-10 -11 -25 -14q-83 12 -83 65q0 15 5 23zM-69 95l-2 2q-3 0 -12.5 -13t-9.5 -25q0 -42 31 -58t41.5 -16t10.5 6t-10.5 22t-19.5 16t-9 -7l13 -7l7 -15q0 -3 -10 -0.5t-28 18.5t-18 33.5t9.5 25.5t9.5 11.5t-1.5 3.5t-1.5 3zM-3 54l15 2l5 -2l5 15l-17 18l-28 8l30 -26
l-2 -3l2 -2q-2 0 -2 -1.5t-2.5 -1.5t-2.5 4t-5 4h-8q-16 2 -31 53l10 34l-10 -5l-10 -41q5 -10 5 -13v-2l13 -16q2 -8 7 -18l19 -2q5 -5 7 -5zM-10 179h-3q0 -3 -1 -3t-1 -7.5t23 -25.5t48 -18q0 -3 -2 -3v10l-42 22zM2 210q-2 -3 -2 -8q10 -23 28 -37t28 -14t13 3l-52 30z
M95 230v-8q2 3 5 3q-8 2 -8 5h3zM36 254l-2 2l-12 -5q-2 -7 -2 -23t9.5 -26t52.5 -31q10 3 18 3l-36 18q-25 25 -25 62h-3zM112 195q-6 0 -30 22h-6q-2 0 -2 3l-3 -3h3q-8 10 -8 32t13 35t32 18t38.5 6.5t34.5 6.5h8q8 0 8 5v2h-8q-21 -10 -45.5 -10t-42.5 -2
q-45 -7 -45 -64q0 -36 31 -54l30 -11q21 5 24 14q0 35 -16 53t-27 20.5t-11 -3.5t12.5 -15t24.5 -30q0 -5 -10 -23zM999 320l-8 -83q0 -30 15 -45l41 5q15 62 15 87v34q0 7 -7 7zM310 345l-78 -8q-12 -5 -12 -12.5t2 -9.5l115 -3l-17 33h-10zM789 374h-5q-3 -3 -3 -5
q3 0 3 -1.5t2 -1.5v3q3 2 3 5zM752 376q-3 8 -12 13q-5 -10 -5 -11q0 -4 7.5 -4t9.5 2zM1287 405q-17 -3 -17 -16h5q7 0 20 13q-8 0 -8 3zM669 584q-12 -13 -17 -13h-10q-5 0 -5 -2l64 -19zM1727 586l-2 -36q-109 -36 -186.5 -51t-87.5 -17q-22 -6 -44 -6t-30 3q-2 -3 -2 -5
l35 -75q-3 -5 -8 -5q-4 0 -10.5 10.5t-9.5 10.5q-71 -52 -127 -56q-16 -32 -17.5 -65t-3.5 -64q2 -13 17 -18q287 56 341 84.5t76 59t57 79.5q16 41 16 79t-14 72zM652 596q-2 0 -10 8q-7 -15 -7 -18h5q10 3 12 10zM351 606h-6q-15 -51 -15 -79t3.5 -64t10.5 -73
q17 -90 30 -90q289 -100 437 -100q24 0 36 2q0 110 -28 138q-10 -5 -25 -5h-52q-43 0 -53 -15t-24 -29q-18 6 -18 5v4l72 147q-50 19 -92.5 30.5t-84.5 25.5q-95 31 -191 103zM599 584q14 -10 19 -10q7 0 7 15l-10 15l7 16h3q-3 2 -4 2t-4 3q-6 -3 -13 -19l2 -12v-5
q-5 -13 -7 -13v8zM1526 637l-14 -7q-5 0 -5 3.5t-2 3.5q-8 -7 -8 -12t5 -5l32 12l-5 3q-3 0 -3 2zM1464 652l-25 -12l-64 -46q5 -5 16 -5t45 8.5t51 22.5l-7 7l-10 -5l-11 13l11 17h-6zM550 615q0 6 11 15v10q0 17 2.5 17t2.5 -2l-11 5q-4 -11 -18 -18l3 -12l-13 -13l62 -31
l-5 10q0 13 2.5 11.5t7.5 3.5v29h-8q0 -13 -12 -13v-18l-10 -5q-14 5 -14 11zM1661 665l-20 -13q-17 -3 -36 -12q-46 -25 -95 -41q-30 -5 -64 -15t-61 -15q-5 2 -11.5 -0.5t-6.5 -4.5v-37q0 -23 10 -27t42 -4t91 17t91.5 34t59 28t46.5 31v9q-17 30 -46 50zM525 676l-5 3
l-3 -14l-13 -8q-3 -15 -8 -20l11 -10q0 -7 3 -7q0 2 2 5l18 49q0 2 -5 2zM410 679l-39 -29l-7 -13q-5 -5 -5 -7l51 -44q20 -5 49.5 -20.5t68.5 -34.5q99 -49 194 -57l5 22q0 3 3 5q0 11 -11 24l-50 7l-17 10q-51 8 -83 30t-57 27q-26 16 -51.5 28.5t-43.5 34.5l-2 14
q-3 3 -5 3zM469 681h10q2 0 3 -5q4 -11 -11 -11q-7 0 -7 9zM1544 640l12 -3q21 10 47 21t41 26h-57l-43 -3q-5 -16 -10 -16q2 -7 2 -8.5t-2 -1.5l10 14q0 2 2 2h8q2 -6 2 -12.5t-6 -11.5t-6 -10v3zM480 645q-1 0 -1 10t15 31q2 0 5 -2l-52 10q-12 -5 -13.5 -6.5t-1.5 -6.5
t5 -10l29 -21l13 -8h2q0 3 -1 3zM1339 804l-72 -382h42l12 8l35 5q0 15 -11 27t-11 48.5t6 60t15.5 36.5t23 21.5t28.5 21.5l-15 41zM719 837h-5q-25 -27 -46 -74q-33 -74 -33 -100t19.5 -42.5t41.5 -38.5q61 -57 61 -101t-10 -71q3 -11 13 -11l56 -3q-16 46 -23 100
q-12 95 -35 146.5t-39 194.5zM1106 584l3 -210q0 -62 -9.5 -92.5t-14.5 -69.5q11 -25 6.5 -44t17.5 -41h5l2 32l10 5l10 -18h5q6 5 6 16.5t-13 42.5q0 2 5 7q13 0 20.5 -20.5t7.5 -31.5t-7.5 -22t-7.5 -18l20 2q5 5 5 10v7l-2 -3l10 5q2 -2 10 -2q14 12 14 30t-13.5 23
t-13.5 10v10t8 2q17 -5 21 -9l18 -46l10 -3q5 10 5 19t-13 30l-34 12q-7 24 -7 53q0 43 34 137q76 272 76 500.5t-40 411.5q-11 22 -11 97q-23 -24 -194 -65q-21 5 -38.5 5t-39.5 9q-37 2 -73.5 17t-63.5 25v-17q0 -36 -31 -113q-47 -137 -47 -262q0 -160 44 -414
q31 -107 40 -206.5t24 -202.5q-3 -8 -10.5 -13t-9.5 -10l-3 -20q0 -3 5 -3v3h3q2 2 5 2q5 -5 7 -10l-5 -19h8l19 68l10 5q5 -5 7.5 -4t2.5 -7l-10 -52q0 -17 5 -22q0 15 5 15q10 -5 11 -12.5t6 -7.5t11 5q-2 12 -10 25.5t-8 27t7 13.5q5 0 15.5 -27t23.5 -32l7 3v-3l-7 34
q2 3 7 3q0 -3 13 -15q4 0 4 -3.5t2 -3.5v7h-2l7 30q0 10 -14 23h-2q-3 0 -5 3l-15 12q-5 13 -5 27v27q0 66 17 143t17 155t-7 150t-12 138q0 13 10.5 13t20.5 -34.5t17 -80.5q13 -96 13 -177t-30 -217q15 -6 30.5 -6t35.5 14l3 37q5 65 5 95l-3 146q0 77 21 151t28 74
q5 -5 5 -17.5t-7 -35.5q-13 -93 -13 -225zM1039 1467q-20 -8 -25 -13l38 5l-10 8h-3zM980 1441q-13 -5 -50 -5t-98 34l-36 -3q-2 -8 -2 -12t33 -16.5t77 -24.5q105 -29 132.5 -29.5t53 -0.5t76 22.5t75.5 37.5l34 20q-5 3 -9 1.5t-9 4.5q-33 -6 -62.5 -20t-60.5 -14l-44 10
q-13 0 -29 -10t-39 -10t-42 15zM1472 1497l82 -12l-87 7l-6 10zM899 1517q-18 -5 -45 -7.5t-51 -5.5q-63 -6 -66 -14l18 -15l10 -3l156 43zM732 1549l15 -3v-5l-20 5zM1036 1580l-35 -5l-2 -4q0 -2 2 -2l33 -10q2 0 2 1t3 1t3 -1t3 -1l10 -23q5 20 8.5 24t13.5 4h5
q0 2 1.5 2t1.5 3v2zM960 1602q-31 -12 -41 -12q-42 0 -74 32l-24 39l-2 5l-20 8q-3 0 -3 5v3q0 3 3 5l76 5h21t53 -23t36 -51t-6.5 -28t-9 6t-9.5 6zM904 1749l10 63l5 -51l2 -2l3 2l33 76h3l-34 -112h-15q-2 0 -2 2l-3 3l-12 -3q-3 0 -5 3l-17 100q15 -23 19 -42
q10 -39 13 -39zM1204 1702l32 -2q15 0 36 7l10 -2v-10q0 -5 -10 -8q-41 -92 -92 -92q-6 0 -49 10q-5 0 -5 -9t-5 -9q-15 0 -15 24.5t28 51.5t70 39zM1236 1795l-17 -54q-5 -2 -8 -2q-2 0 -2 -3l25 59h2zM1190 1805v-64q-5 -2 -9 -2t-4 -3v-4l5 4q0 -4 -5 8l10 61h3z
M1155 1810l15 -78q0 -5 -8 -5q-10 22 -10 43v40h3zM899 1615l-3 16q0 20 10 30l-54 5h-2v-2q0 -15 22 -39zM1707 1964q-36 -13 -48.5 -32.5t-12.5 -43.5t8 -47q66 -129 66 -239t-25.5 -191.5t-64.5 -157.5q-51 -97 -176 -271q-20 -40 -46 -77.5t-36 -88.5q3 -7 10.5 -29
t17.5 -45q25 -58 34 -58l2 2q8 54 33.5 94.5t45.5 89.5q31 54 66.5 117t95 151t110 212.5t50.5 293.5q0 215 -83 298q-3 3 -3 7q0 -4 3 -7q-22 22 -42 22h-5zM914 1607l12 -2q11 0 31 10q-5 7 -33 41h-3q3 -5 3 -12zM1165 1610l10 2h5q-10 19 -10 33t2 19q-31 -16 -31 -44
v-3zM1209 1682q-5 -6 -10.5 -6t-13.5 -5q0 -5 7 -7l5 -49q37 25 47 67h-35zM1239 1495l56 -20q16 2 16 10zM1287 1510l49 -15l3 2q2 0 2 1.5t3 1.5q0 5 -3 7z" />
    <glyph glyph-name=".null" 
 />
    <glyph glyph-name="nonmarkingreturn" horiz-adv-x="333" 
 />
    <glyph glyph-name="space" unicode=" " horiz-adv-x="500" 
 />
    <glyph glyph-name="exclam" unicode="!" horiz-adv-x="454" 
d="M230 442l206 -205l-206 -206l-206 206zM12 1347l342 290l-32 -1000l-180 -161q0 280 -18.5 522t-111.5 349z" />
    <glyph glyph-name="quotedbl" unicode="&#x22;" horiz-adv-x="582" 
d="M250 889q92 156 92 295q0 70 -23 147l245 159q-31 -322 -260 -610zM17 934q92 161 92 294q0 71 -25 148l246 158q-18 -185 -90.5 -334t-170.5 -276z" />
    <glyph glyph-name="numbersign" unicode="#" horiz-adv-x="1106" 
d="M725 444l-45 -366h-115l45 366h-180l-43 -366h-115l45 366h-194l16 129h193l22 201h-190l16 131h191l41 334h112l-41 -334h183l39 334h114l-41 -334h203l-12 -131h-207l-23 -201h205l-16 -129h-203zM649 774h-180l-23 -201h179z" />
    <glyph glyph-name="dollar" unicode="$" horiz-adv-x="928" 
d="M668 1010q-76 131 -185 131q-17 0 -48.5 -7.5t-65 -36t-33.5 -79.5t30.5 -83t54 -46.5t37 -22.5t23.5 -14l187 -119q90 -55 147 -137t57 -192q0 -216 -135 -336q-52 -50 -145 -74q-6 -2 -12.5 -4t-12.5 -4v-164h-143v162q-129 20 -215 88.5t-156 197.5l183 129
q47 -86 103 -131t146 -45q70 0 119 40t49 96.5t-27.5 86t-47 42t-22.5 14.5t-7 4l-176 102q-107 64 -181.5 153t-74.5 243q0 102 49 190t125 135q46 31 133 51v158h143v-158q92 -32 163 -87.5t118 -157.5z" />
    <glyph glyph-name="percent" unicode="%" horiz-adv-x="1581" 
d="M309 1333q28 26 62 26t75 -35q251 -221 251 -433q0 -228 -256 -461q-43 -38 -82 -38t-76 38q-220 226 -220 452t246 451zM223 1129q-44 -29 -44 -100.5t75 -207.5q100 -182 183 -182q24 0 47 15q46 30 46 102t-73 206q-101 183 -186 183q-24 0 -48 -16zM362 -70
q-20 0 -20 21q0 5 2 10l749 1454q4 10 17 10h71q13 0 19 -9.5t0 -18.5l-746 -1456q-4 -11 -16 -11h-76zM1118 942q28 26 62 26t75 -35q251 -221 251 -433q0 -228 -256 -461q-42 -37 -82 -37t-76 37q-220 226 -220 452t246 451zM1032 738q-44 -29 -44 -100.5t75 -207.5
q100 -182 183 -182q24 0 47 15q46 30 46 102t-73 206q-101 183 -186 183q-24 0 -48 -16z" />
    <glyph glyph-name="ampersand" unicode="&#x26;" horiz-adv-x="1065" 
d="M725 434q48 96 76 219l186 -49q-30 -156 -106 -309q82 -51 172 -59l-13 -242q-127 8 -221 59q-35 19 -80 47q-136 -118 -291 -118t-273 100t-118 285q0 157 131 291q36 38 74 71q-72 159 -78 268v7q2 141 78 250q82 118 203 118t205 -88q86 -90 86 -229q0 -213 -211 -389
q99 -151 180 -232zM584 242q-108 124 -230 295q-69 -62 -69 -146q0 -80 57 -140q54 -58 123 -58q56 0 119 49zM446 852q63 41 85 73q38 59 38 136q0 78 -53 113q-17 10 -38.5 10t-39.5 -11.5t-31 -29.5q-26 -36 -28 -86v-6q0 -91 67 -199z" />
    <glyph glyph-name="quotesingle" unicode="'" horiz-adv-x="346" 
d="M7 1512l248 165q22 -98 22 -193q0 -255 -160 -490q11 95 11 171.5t-7 138.5q-16 138 -114 208z" />
    <glyph glyph-name="parenleft" unicode="(" horiz-adv-x="562" 
d="M20 1296l490 323l40 -57q-128 -96 -192 -374q-71 -308 -71 -602t49.5 -514t158.5 -223q-56 -169 -138 -169q-34 0 -72 30q-130 100 -200 469q-38 193 -46 475.5t-19 641.5z" />
    <glyph glyph-name="parenright" unicode=")" horiz-adv-x="610" 
d="M16 1367l234 270q229 -56 284.5 -292t55.5 -468q0 -264 -79 -597t-360 -666l-74 66q217 282 248 544q20 169 20 289.5t-10.5 252t-38 345t-280.5 256.5z" />
    <glyph glyph-name="asterisk" unicode="*" horiz-adv-x="1099" 
d="M9 614l260 283l235 -217l-257 -256q-98 83 -238 190zM309 940l305 332q13 -77 64.5 -152t118.5 -149l-251 -250zM839 929q63 -69 129.5 -137t118.5 -136l-210 -240l-288 265zM539 37q0 128 -248 348l256 255l292 -268l-300 -341v6z" />
    <glyph glyph-name="plus" unicode="+" horiz-adv-x="1275" 
d="M311 861q3 -90 51 -90h7h117v116q1 4 1 9q0 44 -91 50l396 348l-5 -523h480l-310 -424q1 13 1 24q0 98 -76 98h-3h-94v-94v-8q0 -73 96 -73q11 0 24 1l-426 -309l5 483h-477z" />
    <glyph glyph-name="comma" unicode="," horiz-adv-x="502" 
d="M234 545l266 -405l-485 -650z" />
    <glyph glyph-name="hyphen" unicode="-" horiz-adv-x="850" 
d="M840 831q-127 -221 -215 -371q-66 1 -164 1t-220 -5q-179 -9 -216 -79q45 113 90 225l90 224q9 -80 81 -80h4l379 10q85 3 171 75z" />
    <glyph glyph-name="period" unicode="." horiz-adv-x="505" 
d="M252 511l240 -240l-240 -240l-240 240z" />
    <glyph glyph-name="slash" unicode="/" horiz-adv-x="1400" 
d="M2 22l114 502q451 77 1233 1018l48 -22q-538 -867 -1395 -1498z" />
    <glyph glyph-name="zero" unicode="0" horiz-adv-x="1035" 
d="M409 1454q43 40 94.5 40t112.5 -53q381 -335 381 -656q0 -346 -388 -698q-65 -57 -125 -57t-115 57q-333 342 -333 684t373 683zM279 1146q-67 -44 -67 -152t114 -315q151 -276 277 -276q37 0 71 23q70 45 70 154t-110 312q-153 277 -282 277q-37 0 -73 -23z" />
    <glyph glyph-name="one" unicode="1" horiz-adv-x="736" 
d="M700 1500l-13 -1381q-217 -7 -486 -137l-59 82q158 15 218 295q37 171 37 368t-15 377l-366 3l-15 83q388 76 699 310z" />
    <glyph glyph-name="two" unicode="2" horiz-adv-x="1096" 
d="M1012 472l-77 -441q-212 31 -415 31q-236 0 -500 -31q124 115 243 234t232 266q160 210 160 353q0 152 -223 275q-32 17 -54.5 17t-40.5 -12.5t-18 -35.5t11 -48q27 -64 85.5 -104t114.5 -72q-51 -72 -102.5 -142.5t-101.5 -140.5q-232 203 -232 328.5t170 303.5t281 178
q114 0 273.5 -148t159.5 -292q0 -82 -55 -160q-152 -214 -397 -469l181 -1q45 0 90 1q125 2 177 138q13 -10 38 -28z" />
    <glyph glyph-name="three" unicode="3" horiz-adv-x="1027" 
d="M715 982q267 -237 267 -463q0 -190 -185 -338q-209 -164 -379 -164q-43 0 -84 11q-200 52 -314 294q66 73 132.5 145.5t133.5 146.5q45 -289 156 -394q49 -47 109 -47t130 73.5t70 140.5t-54 131q-115 133 -360 229q129 155 289 353q-122 16 -200 16t-127 -8
q-123 -17 -122 -122l-34 16t-33 15q35 129 64.5 239t65.5 240q157 -124 359.5 -130.5t409.5 -10.5z" />
    <glyph glyph-name="four" unicode="4" horiz-adv-x="984" 
d="M521 650v74t-14 211l310 342q-26 -355 -31 -610q83 8 176 25l-7 -302l-166 2q7 -182 28 -297q-176 -17 -447 -90q92 175 129 392l-490 8l451 1060l389 12q-372 -382 -578 -821q104 -7 163 -7t87 1z" />
    <glyph glyph-name="five" unicode="5" horiz-adv-x="986" 
d="M134 762q145 395 152 719q215 -51 578 -51q-42 -69 -82 -138.5t-80 -136.5q-31 -2 -103.5 -2t-248.5 33q-4 -104 -4 -106q438 -66 532 -302q24 -59 24 -124q0 -192 -211 -433q-174 -197 -330 -197q-23 0 -45 4q-176 34 -296 181q44 229 71 353q144 -175 303 -273
q60 -37 107 -37q77 0 118 95.5t41 166.5q0 118 -109 178q-137 76 -314 76q-50 0 -103 -6z" />
    <glyph glyph-name="six" unicode="6" horiz-adv-x="954" 
d="M467 1527l228 -117q-221 -64 -310 -217.5t-93 -326.5l280 218q214 -142 291 -313q33 -74 33 -168t-52.5 -206t-141 -186.5t-170.5 -121.5q-83 -48 -94.5 -48t-62.5 38q-326 226 -326 552q0 384 418 896zM377.5 469q62.5 -102 126.5 -141t121 -39t57 33q-2 230 -74 366
q-62 116 -182 116q-20 0 -48.5 -4t-81.5 -41q19 -188 81.5 -290z" />
    <glyph glyph-name="seven" unicode="7" horiz-adv-x="985" 
d="M371 1137l-114 4q-145 0 -145 -124q0 -18 3 -38q-28 4 -83 15q-3 315 -3 425q320 -11 946 -24q-201 -280 -299 -614q-128 -428 -137 -750q-113 9 -186.5 16t-186.5 17q74 277 224.5 543.5t293.5 536.5z" />
    <glyph glyph-name="eight" unicode="8" horiz-adv-x="957" 
d="M457 1485v-1q27 22 54.5 22t54.5 -16q79 -50 164.5 -122.5t123.5 -117.5q36 -45 36 -56.5t-22 -56.5q-37 -78 -242 -242q158 -146 264 -235q23 -37 23 -77t-54.5 -119.5t-133 -198.5t-201.5 -190q-41 -24 -69 -24t-46 16q-102 83 -185 157.5t-164 175.5q-30 47 -30 77.5
t5 47.5q99 147 257 272q-130 97 -203 169q-17 21 -17 59.5t24 101.5q164 234 361 358zM390 725q-16 -11 -32.5 -22l-40.5 -27t-24 -35t6 -31q83 -212 267 -309q18 -9 33.5 -9t27.5 12l48 50q12 13 12 39.5t-37 78.5q-101 133 -260 253zM541 972q17 10 48 31.5t31 41t-9 35.5
q-75 124 -195 180q-10 4 -19 4q-31 0 -57 -47q-13 -20 -13 -38.5t20 -34.5q103 -90 194 -172z" />
    <glyph glyph-name="nine" unicode="9" horiz-adv-x="940" 
d="M484 31l-229 118q221 62 310 216.5t92 326.5l-280 -216q-215 139 -290 311q-33 75 -33 169t53.5 208.5t146 190t162 114t97 38.5t56.5 -21q326 -246 326 -573q0 -375 -411 -882zM572 1089q-63 102 -127.5 141.5t-121 39.5t-56.5 -33q0 -228 73 -367q62 -116 184 -116
q20 0 49 4t81 42q-19 187 -82 289z" />
    <glyph glyph-name="colon" unicode=":" horiz-adv-x="507" 
d="M254 511l240 -240l-240 -240l-240 240zM254 1164l240 -240l-240 -240l-240 240z" />
    <glyph glyph-name="semicolon" unicode=";" horiz-adv-x="509" 
d="M80 267l270 240q55 -130 55 -291q0 -268 -153 -622q-11 193 -47 366.5t-125 306.5zM247 1080l240 -240l-240 -240l-240 240z" />
    <glyph glyph-name="less" unicode="&#x3c;" horiz-adv-x="813" 
d="M45 575l586 549l145 -145l-436 -391l444 -408l-153 -153z" />
    <glyph glyph-name="equal" unicode="=" horiz-adv-x="781" 
d="M774 947l-172 -297h-121t-205 -5t-155 -61l72 180t73 180q6 -65 63 -65h5l303 8q68 2 137 60zM164 609q6 -64 67 -64h193q65 0 136 60q-90 -156 -171 -298q-90 2 -151 2t-101 -1q-87 -3 -117 -59q36 90 71.5 180t72.5 180z" />
    <glyph glyph-name="greater" unicode="&#x3e;" horiz-adv-x="813" 
d="M768 575l-586 -548l-145 145l436 391l-444 408l153 153z" />
    <glyph glyph-name="question" unicode="?" horiz-adv-x="546" 
d="M276 442l206 -205l-206 -206l-206 206zM467 707l-216 -235q-121 52 -207 193q254 359 254 525q0 28 -7 50q-50 157 -279 170l283 282q166 -92 200 -254q6 -27 6 -58q0 -153 -144 -398q-67 -115 -67 -162t20 -64q56 -49 157 -49z" />
    <glyph glyph-name="at" unicode="@" horiz-adv-x="1305" 
d="M840 237q-24 0 -108 8q2 22 3 38t3 32q3 37 8 89q-106 -116 -153 -143t-99.5 -27t-89 60.5t-36.5 160.5t27.5 176.5t78.5 129.5q105 111 288 111q77 0 166 -26q-20 -63 -29 -150l-26 -206q-10 -80 -10 -110t11.5 -45t47.5 -15t72.5 24.5t63.5 67.5q59 91 59 199
t-29.5 180t-81.5 125q-109 111 -280 111q-220 0 -360 -155q-140 -156 -140 -379t101 -335.5t285 -112.5q91 0 147 20t78.5 30t44.5 25q40 25 104 79l61 -61q-22 -20 -40 -35t-31 -26q-148 -118 -382 -118q-304 0 -430 217q-72 122 -72 269.5t52.5 269.5t142 213t210 143.5
t255.5 52.5q231 0 356 -144q120 -141 120 -333t-101.5 -301t-286.5 -109zM565 347q50 0 126 92q43 52 53 81q11 33 21 103l9 73q2 10 2 20v18q0 55 -89 55q-82 0 -133 -85q-52 -86 -52 -221.5t63 -135.5z" />
    <glyph glyph-name="A" unicode="A" horiz-adv-x="1405" 
d="M697 1226q-102 26 -198 26q-236 0 -430 -160q1 10 -6.5 52.5t-5.5 52.5q263 216 572 338q404 -120 743 -330q-22 -36 -55 -63t-55 -62q-7 -19 -7 -54v-54l7 -536q3 -65 24 -81l101 -83l-176 -241l-229 194q22 157 22 411h-374q-38 -354 -216.5 -600t-321.5 -385
q-42 30 -76 50q116 121 173.5 277t98.5 329.5t41 340t-73 312.5q243 121 441 266zM1000 871q-2 119 -2 146.5t1 62.5q-99 70 -208 115q-71 -53 -108 -121.5t-44 -202.5h361z" />
    <glyph glyph-name="B" unicode="B" horiz-adv-x="1451" 
d="M184 1170l623 365q234 -89 498 -279q-114 -76 -234 -161q314 -243 314 -448q0 -77 -43 -148q-161 -263 -661 -487q-288 255 -659 277l254 185l6 491q2 122 -98 205zM911 1137q-140 104 -309 153l-2 -364zM909 232q160 140 160 304q0 106 -60 195t-177 126
q-43 13 -101.5 13t-131.5 -41l-2 -268l-101 -62q292 -146 413 -267z" />
    <glyph glyph-name="C" unicode="C" horiz-adv-x="1080" 
d="M1009 1087q-114 97 -232 135q-7 -94 -7 -237t31 -330l-316 -141q80 -83 213 -125q73 -23 157.5 -23t173.5 15l-174 -366q-291 95 -460 184.5t-252.5 210.5t-100.5 292q-11 107 -11 219.5t4 208.5l822 405l240 -174zM497 1212q-165 -79 -165 -290q0 -191 94 -335
q64 42 79 167q6 49 6 152.5t-14 305.5z" />
    <glyph glyph-name="D" unicode="D" horiz-adv-x="1295" 
d="M224 502q8 93 8 177t-7 159q-14 156 -105 246q234 11 449 96q-218 109 -522 109h-32l329 246q461 -71 684.5 -327t240.5 -674l-589 -503q-285 144 -676 239zM616 1154q-31 -57 -49 -109.5t-18 -100.5t1.5 -121.5t6.5 -138.5t35 -153q-21 2 -41 2q-101 0 -192 -41
q240 -175 373 -175q55 0 92 31q113 95 113 274q0 159 -83 298.5t-238 233.5z" />
    <glyph glyph-name="E" unicode="E" horiz-adv-x="1215" 
d="M1211 1345l-170 -198q-156 108 -305 129q-9 -86 -12 -196h413v-236h-408q3 -114 23 -265l-230 -84q189 -170 526 -170q38 0 78 2l-219 -296q-425 46 -653.5 300t-228.5 749l776 455q141 -97 410 -190zM445 577l74 25q-30 219 -30 379t5 256q-60 -30 -97.5 -70t-54 -77.5
t-16.5 -106t2 -103.5q7 -158 117 -303z" />
    <glyph glyph-name="F" unicode="F" horiz-adv-x="1022" 
d="M568 -90q30 0 30 51t-43 162.5t-132 284.5t-195.5 361t-190.5 342q303 191 472 424q225 -81 493 -163q-104 -134 -210 -266q-32 49 -158.5 101t-172.5 52t-58 -14t-12 -36q0 -68 81 -263q51 -3 164 -3t325 26q-22 -120 -40 -238l-361 19q146 -310 311 -548
q-171 -235 -412 -573q-244 120 -433 402q46 115 121 305q102 -156 239 -291t182 -135z" />
    <glyph glyph-name="G" unicode="G" horiz-adv-x="1472" 
d="M1114 1081q214 -171 331 -367q-228 -465 -700 -683q-670 270 -670 817q0 40 4 81q312 452 692 606q208 -145 569 -238zM751 1249q-9 -101 -9 -179t2 -131q55 51 113 102t113 104q-86 67 -219 104zM746 890q5 -121 19 -241q-104 -19 -245 -137q82 -75 187.5 -137
t197.5 -62q26 0 52 4q165 27 185 147q5 32 5 62q0 84 -39 149.5t-128 128t-234 86.5zM446 585q26 57 30 131l9 348q1 45 -30 116q-16 -14 -29 -33q-91 -122 -91 -274q0 -165 111 -288z" />
    <glyph glyph-name="H" unicode="H" horiz-adv-x="1231" 
d="M39 1220q295 166 566 315q229 -103 437 -151l-278 -193q-64 14 -119.5 42.5t-97 38.5t-74 10t-58 -32t-25.5 -59t1 -37l-1 -273l365 229q245 -220 455 -511q-84 -244 -195 -470.5t-284 -417.5q-76 -83 -145 -83q-41 0 -74 25.5t-58 49t-52 46.5q279 68 389 280
q76 147 76 293q0 65 -19 148.5t-128 254.5q-68 108 -160 108q-55 0 -118 -38q-17 -10 -52 -33l-1 -301q-2 -40 20.5 -52.5t57 -24.5t92 -30.5t138.5 -19.5l-220 -303q-262 59 -450 155q70 270 70 528.5t-58 505.5z" />
    <glyph glyph-name="I" unicode="I" horiz-adv-x="1062" 
d="M1030 1516q-93 -164 -125 -224q22 -251 41 -415t19 -222q0 -169 -65 -264q-93 -65 -188.5 -160t-192.5 -200q-175 82 -407 193q-84 34 -84 121q0 23 8.5 71.5t21 119t24.5 141.5q109 -143 233 -227.5t256 -135.5q18 -7 44.5 -7t56 35t29.5 93.5t-9.5 146.5t-32.5 224
t-43 274q79 63 166 157q-68 -7 -165.5 -7t-194 19.5t-154.5 19.5q-115 0 -202 -53q48 185 144 346q293 -48 664 -48q76 0 156 2z" />
    <glyph glyph-name="J" unicode="J" horiz-adv-x="1122" 
d="M12 1035l277 527q235 -66 437 -66t374 39q-72 -145 -72 -258q0 -18 6.5 -84.5t6.5 -175.5q0 -436 -183 -755q-228 -398 -693 -657q-39 30 -80 59.5t-79 59.5q128 25 243.5 66t208.5 146q203 229 261 838q-45 2 -110 2q-155 0 -360 -50l94 176t96 178q135 -56 305 -58
q18 145 50 218q-49 2 -95 2q-180 0 -347 -38t-340 -169z" />
    <glyph glyph-name="K" unicode="K" horiz-adv-x="1446" 
d="M52 1200q19 68 89 335q144 -11 288.5 -23t289.5 -23q-74 -129 -86.5 -235.5t-12.5 -167t2 -95.5q103 106 203 248t200 296q198 -312 386 -511l-355 -168l353 -632q-220 -132 -320 -193q-155 394 -310 694l-153 -73q-9 -67 -30 -123.5t-76 -97t-99 -86.5q68 -23 109 -23
q109 0 217 20l-170 -311q-220 64 -533 80q203 178 242.5 479.5t39.5 618.5v16q-19 1 -51 1q-49 0 -223 -26zM632 780q217 95 390 211q-67 53 -118 150l-273 -334q0 -17 1 -27z" />
    <glyph glyph-name="L" unicode="L" horiz-adv-x="1166" 
d="M1122 1375q-142 -3 -277 -33q-10 -72 -10 -179t18 -204t18 -145q0 -82 -122 -178q-75 -64 -151 -125t-151 -122q307 -83 649 -83h39q-46 -74 -74.5 -114t-73.5 -112q-33 -49 -100 -49q-29 0 -147.5 25t-319 65.5t-399.5 82.5q168 203 208 342q16 57 16 126t-47.5 178
t-67 188t-19.5 107q0 70 54 94q166 73 345 134.5t299 112t163 50.5t68 -18q55 -41 82 -143zM608 898l-15 233q0 62 9 126q-22 -11 -65 -36q-85 -51 -85 -127q0 -26 49 -232q19 -84 19 -146t-6 -104q51 37 72.5 134.5t21.5 151.5z" />
    <glyph glyph-name="M" unicode="M" horiz-adv-x="1886" 
d="M671 331l-167 -300q-289 146 -462 236q222 207 247 291q4 15 4 35q0 95 -83 278t-110.5 251.5t-27.5 105.5t12 64q28 62 132 113.5t316 129.5q30 -70 44 -105q-134 -44 -147 -110q-3 -14 -3 -30q0 -57 38 -135q353 346 386 380q89 -59 151.5 -112.5t150.5 -97.5l200 210
q120 -65 241 -129.5t252 -110.5q-161 -110 -170 -373l-11 -372v-22q0 -162 115 -197l-159 -300q-145 53 -200.5 164.5t-55.5 308.5v28l2 252q0 91 33 159t86 137q-201 147 -301 159q-38 -57 -38.5 -135t-4.5 -182l-11 -372v-22q0 -181 95 -212l-234 -285q-54 68 -122 129
t-128 112q30 35 59 110t30 150l35 619q-87 65 -135 65q-12 0 -22 -4q-47 -21 -191 -160l13 -23q75 -140 75 -232q0 -25 -6 -47q-27 -101 -190 -313q94 -68 262 -106z" />
    <glyph glyph-name="N" unicode="N" horiz-adv-x="1374" 
d="M666 331l-167 -300q-289 146 -462 236q222 207 247 291q4 15 4 35q0 95 -83 278t-110.5 251.5t-27.5 105.5t13 64q27 62 131 113.5t316 129.5q30 -70 44 -105q-140 -46 -148 -116q-1 -9 -1 -19q0 -65 45 -159q92 98 193.5 208.5t179.5 190.5q120 -65 243 -129.5
t256 -110.5q-163 -110 -170 -373l-13 -372v-21q0 -162 116 -198q-82 -150 -158 -300q-145 53 -201 165.5t-56 314.5v21l3 252q0 91 32.5 159t84.5 137q-104 77 -204 77q-113 0 -249 -125l1 -3q75 -140 75 -232q0 -25 -6 -47q-27 -101 -190 -313q94 -68 262 -106z" />
    <glyph glyph-name="O" unicode="O" horiz-adv-x="1626" 
d="M936 1535q-9 -129 -10 -220q48 47 96 96.5t95 90.5q144 -293 477 -493q-2 -240 -85.5 -423.5t-201.5 -307t-247 -186t-220 -62.5q-424 0 -591.5 270.5t-214.5 631.5q161 233 377 395t525 208zM925 1187q4 -457 110 -692q-251 -60 -328 -205q98 -59 208 -59q11 0 21 1
q158 5 260 91q120 100 120 259q0 119 -83 276t-308 329zM617 359q38 106 38 275q0 16 -2.5 103.5t-4.5 248.5t-24 319q-220 -128 -220 -405q0 -23 2 -47q19 -314 211 -494z" />
    <glyph glyph-name="P" unicode="P" horiz-adv-x="1297" 
d="M152 -350q78 226 102 605l-205 74l215 205v200t-13 483q-52 24 -105.5 48.5t-105.5 50.5l172 219q274 -80 395 -118q-3 -32 -5 -64t-5 -62l304 244q340 -257 340 -611q0 -38 -4 -76q-40 -404 -356 -817l-321 115q9 -161 39 -215q-164 -101 -447 -281zM891 331
q124 0 124 189q0 161 -62 331t-168 267q-42 39 -82 39q-62 0 -121 -91q-21 -329 -26 -582l329 -153h6z" />
    <glyph glyph-name="Q" unicode="Q" horiz-adv-x="1616" 
d="M926 1535q-9 -129 -10 -220q48 47 96 96.5t95 90.5q144 -293 477 -493q-2 -225 -75 -399t-180 -296q262 -516 966 -516q91 0 189 9l-3 -98q-207 -39 -412.5 -39t-398.5 58q-351 106 -611 368q-129 -66 -229 -66q-424 0 -591.5 270.5t-214.5 631.5q161 233 377 395
t525 208zM915 1187q4 -457 110 -692q-251 -60 -328 -205q98 -59 208 -59q11 0 21 1q158 5 260 91q120 100 120 259q0 119 -83 276t-308 329zM607 359q38 106 38 275q0 16 -2.5 103.5t-4.5 248.5t-24 319q-220 -128 -220 -405q0 -23 2 -47q19 -314 211 -494z" />
    <glyph glyph-name="R" unicode="R" horiz-adv-x="1439" 
d="M36 220q275 255 275 596q0 195 -94 428q-61 26 -167 26h-8l333 265q157 -100 209 -258l188 258q383 -199 617 -319q-269 -142 -365 -194q73 -165 142.5 -330.5t152.5 -324.5q41 -80 142 -100q-86 -60 -172.5 -118.5t-172.5 -117.5q-184 463 -410 901q70 45 140 91.5
t141 92.5q-133 76 -287 169l-95 -130q1 -16 1 -32q0 -292 -277 -732l266 -90q23 -8 61 -8t101 17l-241 -279z" />
    <glyph glyph-name="S" unicode="S" horiz-adv-x="1475" 
d="M994 1475q93 -46 189.5 -46t232.5 73l39 -47q-148 -321 -360 -321q-59 0 -156 34q-269 93 -390 93q-57 0 -114 -11q-156 -33 -156 -184q0 -54 28 -101q50 -86 158 -86t194 192q93 15 176 15q164 0 288 -58q187 -87 247 -244q25 -65 25 -151.5t-50 -200.5
q-85 -196 -349 -370q-49 -32 -111 -32q-64 0 -139 17q-200 42 -370 153t-282 306q-53 89 -53 197q0 13 1 26q35 486 384 780q66 56 182 55q194 -3 386 -89zM322 769q38 -175 288 -312q189 -103 352 -103q54 0 105 11q102 21 155 80q58 64 58 134.5t-57.5 137.5t-181.5 88
q-12 2 -45 2t-109 -29q-95 -36 -151 -158h-18q-179 0 -396 149z" />
    <glyph glyph-name="T" unicode="T" horiz-adv-x="1261" 
d="M26 732q185 254 483 527q-49 40 -104 40q-78 0 -330 -104l241 367q291 -30 541.5 -30t478.5 30q-111 -256 -154 -358q-111 46 -231 72l8 -821q-177 -20 -335 -129q128 -105 307 -105t390 110q-4 -68 -6 -136q-550 -253 -850 -81t-439 618zM611 1155q-155 -146 -183 -302
q-10 -53 -10 -127t38 -167.5t98 -163.5q72 71 76 219q7 276 7 374t-26 167z" />
    <glyph glyph-name="U" unicode="U" horiz-adv-x="1406" 
d="M1152 31q-140 88 -280 178q28 95 45 198l-340 -376q-86 76 -218 135t-282 111q199 133 249 305q14 47 14 96q0 131 -104.5 286t-104.5 292q0 216 270 370q52 -30 108 -60q-158 -108 -158 -197q0 -22 11 -43q50 -105 294 -184v-20q0 -313 -186 -627q160 -102 236 -102
q72 0 231 193q6 90 6 223t-17 328q1 9 1 17q0 45 -41 73.5t-85 62.5l239 264q106 -67 289 -175q-65 -87 -73.5 -171t-8.5 -173l-6 -390v-34q0 -123 27.5 -190t97.5 -94z" />
    <glyph glyph-name="V" unicode="V" horiz-adv-x="1232" 
d="M361 1584q-33 -45 -33 -89t43 -84q104 -96 143 -206l316 357q162 -175 256 -345t94 -342q0 -46 -6 -93q-22 -158 -155 -327.5t-287 -400.5q-150 87 -645 162q49 65 92 148t47 187l11 339v12q0 131 -102 210q-89 71 -89 163q0 61 50 134l88 127q40 60 104 60q37 0 73 -12z
M721 1146q-20 38 -57.5 38t-126.5 -92q3 -34 3 -54v-28l-21 -551l301 -98q87 90 87 223q0 53 -13 112q-49 210 -173 450z" />
    <glyph glyph-name="W" unicode="W" horiz-adv-x="1797" 
d="M1222 31q-191 87 -456 186l-144 -186q-365 91 -558 143q142 145 196.5 217.5t54.5 124.5t-23 101l-216 523q-30 73 -30 95.5t2 28.5q6 38 63 93l266 248q38 -11 76.5 -21t77.5 -22q-134 -153 -134 -237q0 -63 42 -148q167 130 358 385l284 -288q130 75 350 288
q184 -312 257 -575q28 -98 28 -184q0 -142 -87.5 -263t-195 -250t-211.5 -259zM1114 1121l-24 -709q82 -38 217 -90q123 120 123 283q0 46 -10 96q-45 225 -206 494zM514 1035q101 -191 101 -282.5t-201 -357.5q160 -74 238 -74q80 0 133 73q25 262 25 415t-10 271
q-81 95 -130 157l-159 -197z" />
    <glyph glyph-name="X" unicode="X" horiz-adv-x="1387" 
d="M420 460q-2 -43 -2 -97.5t16 -202.5q-170 -41 -395 -153q87 365 443 892l7 11l-108 170q-57 85 -109 156q-31 41 -83 50t-104 9q64 77 147 149.5t223 146.5q73 -134 99 -181q62 -110 112 -195l19 -31l21 30q36 47 73.5 96t75 95.5t75 93.5t77.5 95q47 -19 92 -38t88 -37
q98 -41 164 -70l-190 -315q-126 116 -250 157q-42 -46 -75.5 -87.5t-51.5 -63t-42 -53.5l8 -12q169 -288 386 -588q54 -75 124 -107q36 -21 84 -29q-189 -200 -379 -350q-24 48 -48.5 96.5t-72.5 144.5q-171 345 -273 528l-21 37l-21 -37q-102 -189 -109 -310z" />
    <glyph glyph-name="Y" unicode="Y" horiz-adv-x="1346" 
d="M689 -565q-163 0 -346 97q-72 39 -159.5 39t-207.5 -74l-35 47q68 170 148.5 245.5t173.5 75.5q53 0 141 -34q240 -93 349 -93q204 0 236 130q9 35 9 78t-20.5 79.5t-69 172.5t-48.5 192q0 9 1 17l-340 -376q-86 76 -218.5 135t-281.5 111q199 133 249 305q14 47 14 96
q0 131 -105 286t-105 292q0 215 271 370q26 -15 53 -30t53 -30q-156 -108 -156 -196q0 -23 10 -44q51 -105 295 -184v-7q0 -326 -186 -640q160 -102 236 -102q72 0 231 193q6 92 6 227t-18 324q1 9 1 17q0 45 -40.5 73.5t-85.5 62.5l240 264q82 -52 288 -175
q-65 -87 -73 -171t-9 -173l-5 -390v-34q0 -123 27.5 -190t97.5 -94q-85 -116 -177.5 -417t-265.5 -419q-85 -56 -178 -56z" />
    <glyph glyph-name="Z" unicode="Z" horiz-adv-x="1214" 
d="M618 1517l249 3q147 0 293 -5l-400 -428q251 -175 338 -339t85 -331t-92.5 -342.5t-233.5 -307t-323 -192.5q-94 -32 -184.5 -32t-177.5 27q-118 38 -118 228q0 16 1 34q11 220 75 362q116 257 482 462q-95 73 -288 150l392 369q-119 40 -272 40q-222 0 -394 -99l154 446
q197 -45 414 -45zM379 -193q71 -40 144.5 -40t148.5 39q152 79 182 148q43 75 43 191q0 172 -98 302q-46 10 -113 10t-177 -45.5t-172.5 -119t-96.5 -230.5q-6 -26 -6 -50q0 -123 145 -205z" />
    <glyph glyph-name="bracketleft" unicode="[" horiz-adv-x="477" 
d="M128 -78q-20 0 -20 19v1564q0 19 20 19h367q20 0 20 -19v-45q0 -20 -20 -20l-144 -4v-1426h140q20 0 20 -20v-49q0 -19 -20 -19h-363z" />
    <glyph glyph-name="backslash" unicode="\" horiz-adv-x="792" 
d="M752 1h-138l-585 1538h138z" />
    <glyph glyph-name="bracketright" unicode="]" horiz-adv-x="500" 
d="M12 -77q-20 0 -20 19v49q0 20 20 20h151v1424h-151q-20 0 -20 20v51q0 19 20 19h365q18 0 18 -19v-1564q0 -19 -18 -19h-365z" />
    <glyph glyph-name="asciicircum" unicode="^" horiz-adv-x="598" 
d="M60 1165q-22 0 -22 17q0 5 4 11l184 326q5 8 16 8h101q13 0 18 -8l180 -326q3 -6 3 -11q0 -17 -19 -17h-45q-10 0 -14 4l-175 178q-171 -179 -178 -180.5t-10 -1.5h-43z" />
    <glyph glyph-name="underscore" unicode="_" horiz-adv-x="1210" 
d="M-12 -289q0 19 20 19h1198q21 0 21 -19l-4 -90q0 -20 -21 -20h-1194q-20 0 -20 20v90z" />
    <glyph glyph-name="grave" unicode="`" horiz-adv-x="520" 
d="M405 1680q50 -164 50 -355v-33l-280 351z" />
    <glyph glyph-name="a" unicode="a" horiz-adv-x="922" 
d="M37 759l390 317l442 -207q-78 -68 -79 -153l-4 -331q0 -34 35.5 -77t67.5 -69l-202 -208l-155 159q-56 -45 -113 -82.5t-102 -78.5q-150 56 -280 173q37 47 43 137l-3 302v8q0 59 -40 110zM380 836q-58 -87 -58 -155v-245q0 -75 27 -107q23 -33 42.5 -59t62.5 -38l82 59
v460z" />
    <glyph glyph-name="b" unicode="b" horiz-adv-x="877" 
d="M31 1294l11 47q199 70 429 194l63 -39q-142 -85 -143 -321l-1 -206l166 132q76 -32 140 -124q131 -188 153 -399q3 -25 3 -65t-22 -68l-331 -431l-429 213q25 54 47 115.5t22 133.5l-8 694q0 74 -100 124zM390 850l-3 -433q9 -50 68.5 -77.5t80 -27.5t28.5 2
q86 22 86 112q0 22 -5 48q-34 168 -98.5 254t-156.5 122z" />
    <glyph glyph-name="c" unicode="c" horiz-adv-x="785" 
d="M692 362l-338 -333q-320 212 -320 494q0 139 90 274t290 295q86 -56 177 -109.5t179 -106.5l-200 -176q-60 37 -95.5 63.5t-75 44.5t-57 18t-37.5 -20q-62 -63 -62 -142q0 -139 162 -297q41 -38 79 -38q67 0 122 92q21 -15 42.5 -29.5t43.5 -29.5z" />
    <glyph glyph-name="d" unicode="d" horiz-adv-x="842" 
d="M357 1025q-77 131 -203 276l265 139q360 -439 400 -1036q-125 -94 -211.5 -174t-142.5 -199q-110 49 -219.5 99.5t-201.5 134.5q-4 151 -6 303l-4 304q240 110 323 153zM562 286v21q0 336 -158 639q-109 -52 -130 -188q-7 -53 -7 -135t20 -212q140 -111 275 -125z" />
    <glyph glyph-name="e" unicode="e" horiz-adv-x="794" 
d="M520 31l-479 191q27 150 27 312.5t-31 339.5l345 203v3l2 -1h1l389 -279l-405 -426q41 -49 91 -54t82.5 -5t77 3.5t109.5 5.5q-53 -74 -105 -147zM354 810q-58 0 -58 -158q0 -90 30 -180q0 -9 3 -15l161 170q17 18 17 36t-17.5 46t-35.5 46q-63 55 -100 55z" />
    <glyph glyph-name="f" unicode="f" horiz-adv-x="555" 
d="M586 1202q-75 45 -176 57q-18 -27 -53 -77q19 -41 29 -101h163v-252h-148q0 -94 -3.5 -190.5t-5.5 -180.5q-5 -190 -275 -853q-37 37 -82 49q69 246 82.5 529.5t13.5 471.5t-4 336q-2 81 -81 145q86 91 157.5 180t157.5 181q93 -11 198.5 -32t206.5 -41q-45 -57 -90 -112
z" />
    <glyph glyph-name="g" unicode="g" horiz-adv-x="970" 
d="M67 759l390 317l419 -207q-77 -68 -77 -153l-4 -331q-1 -34 59 -135t90 -128l-395 -453q-234 52 -517 72l258 325q-129 53 -221 136q33 44 42 137l-2 302q1 66 -42 118zM701 -15q-116 132 -126 322l-274 -350q158 0 339 -50zM569 421l-3 330l-177 85q-58 -87 -58 -155
v-245q0 -74 22.5 -103t39.5 -48.5t43 -32.5z" />
    <glyph glyph-name="h" unicode="h" horiz-adv-x="892" 
d="M537 259q-172 -190 -222 -244q-74 56 -147.5 112.5t-146.5 112.5q68 59 89 109t22 95l5 605q0 65 -5.5 155t-44.5 152l330 179q-27 -120 -31.5 -249t-4.5 -262v-93l195 149q279 -265 279 -602q0 -374 -291 -821l-149 47q225 247 225 565q0 336 -260 562l-3 -394
q0 -75 14 -85t146 -93z" />
    <glyph glyph-name="i" unicode="i" horiz-adv-x="470" 
d="M29 890l151 190l224 -105q-12 -41 -26 -80t-14 -80l-14 -406v-9q0 -47 30 -78t69 -47l-200 -244l-212 171q58 69 58 138l7 454q0 48 -73 96zM59 1089l80 395l297 -119z" />
    <glyph glyph-name="j" unicode="j" horiz-adv-x="480" 
d="M60 890l151 190l224 -105q-11 -41 -23.5 -80t-19.5 -104.5t-7 -155t-2 -175.5t-48 -283t-199 -572q-32 31 -106 49q65 235 81 479t20 487l3 174q0 48 -74 96zM90 1089l80 395l299 -119z" />
    <glyph glyph-name="k" unicode="k" horiz-adv-x="711" 
d="M546 259q-172 -190 -222 -244q-174 132 -294 225q109 96 111 204l3 275h-94l95 180l1 150q0 65 -5.5 155t-44.5 152l330 179q-25 -103 -30 -234l160 160l195 -246l-237 -280h198l-113 -216h-210l-3 -282q0 -75 13 -93t147 -85zM391 1180q-1 -39 -1 -78v-167h49l112 131
q-20 131 -104 161z" />
    <glyph glyph-name="l" unicode="l" horiz-adv-x="556" 
d="M537 259q-172 -190 -222 -244q-74 56 -147.5 112.5t-146.5 112.5q68 59 89 109t22 95l5 605q0 65 -5.5 155t-44.5 152l330 179q-27 -120 -31.5 -249t-4.5 -262l-4 -587q0 -75 14 -85t146 -93z" />
    <glyph glyph-name="m" unicode="m" horiz-adv-x="1350" 
d="M410 931l119 149l256 -189l151 189l319 -231l-30 -118l-13 -322v-9q0 -47 30 -78t68 -47l-200 -244q-74 58 -113.5 103t-39.5 185v21l7 370q0 40 -107 131l-41 -71l-15 -361v-6q0 -49 30 -80.5t69 -47.5l-200 -244l-213 171q57 67 59 138l6 370q0 44 -117 139l-59 -70
l-9 -370q-1 -53 29.5 -85.5t69.5 -48.5l-200 -244l-211 171q57 69 57 138l8 454q0 48 -74 96l151 190l213 -148v-1z" />
    <glyph glyph-name="n" unicode="n" horiz-adv-x="929" 
d="M404 934l117 146l319 -231l-30 -118l-13 -322v-6q0 -49 30 -80.5t68 -47.5l-200 -244q-74 58 -113.5 103t-39.5 185v21l7 370q0 42 -128 140l-40 -63l-19 -378v-6q0 -49 30 -80.5t69 -47.5l-200 -244l-211 171q57 69 57 138l8 454q0 48 -74 96l151 190z" />
    <glyph glyph-name="o" unicode="o" horiz-adv-x="864" 
d="M80 801q233 156 387 283q77 -33 155 -118q169 -181 200 -378q4 -23 4 -44q0 -66 -37 -107l-332 -423l-428 211q68 141 68 244l-2 233q-3 72 -15 99zM349 836l-3 -425q9 -49 69 -76.5t79.5 -27.5t26.5 2q88 20 88 111q0 21 -5 47q-34 165 -98.5 249.5t-156.5 119.5z" />
    <glyph glyph-name="p" unicode="p" horiz-adv-x="943" 
d="M419 -251q-171 -27 -351 -147l-50 54q30 18 82.5 121.5t52.5 186.5l3 205l-142 56q34 67 74.5 118t69.5 114l1 205q0 80 -65.5 127t-91.5 65l224 230l192 -175l141 175q77 -33 155 -118q169 -181 200 -378q4 -23 4 -44q0 -66 -37 -107l-332 -423l-141 56l-1 -39v-21.5
t12 -260.5zM414 371q138 -64 186 -64q8 0 14 2q87 20 87 110q0 22 -5 48q-25 127 -90 210t-139 130q-16 -27 -31 -55t-15 -70z" />
    <glyph glyph-name="q" unicode="q" horiz-adv-x="881" 
d="M16 759l390 317l419 -207q-61 -53 -63 -153l-2 -744q0 -32 27 -74.5t58 -71.5l-178 -207q-53 41 -104 90.5t-51 141.5l-1 339q-56 -45 -113 -82.5t-102 -78.5q-150 56 -280 173q36 47 43 137l-3 302v8q0 59 -40 110zM354 836q-59 -86 -59 -155v-245q0 -74 25.5 -107
t47.5 -59t64 -38l83 59v460z" />
    <glyph glyph-name="r" unicode="r" horiz-adv-x="811" 
d="M395 934l130 132q201 -139 272 -282l-160 -214q-27 79 -73.5 139t-154.5 123l-33 -45l-19 -341q-3 -52 66 -108t107 -72l-166 -235l-310 241q56 67 58 138l-2 384q-3 48 -74 96l151 190z" />
    <glyph glyph-name="s" unicode="s" horiz-adv-x="897" 
d="M26 217l174 182q-94 126 -133 285q120 198 355 396q185 -51 424 -96l24 6l-188 -193l164 -411q-186 -139 -342 -355q-195 115 -478 186zM555 286q101 0 101 72q0 63 -144 264l-240 -247q155 -89 283 -89zM397 604l194 200q-174 47 -233 47t-65.5 -11.5t-6.5 -21.5
q0 -57 111 -214z" />
    <glyph glyph-name="t" unicode="t" horiz-adv-x="580" 
d="M535 275l-223 -244q-73 56 -147 112.5t-146 112.5q109 96 111 204l4 415h-87v79q136 195 344 505l51 -8q-23 -109 -40.5 -179.5t-21.5 -175.5h176v-216h-179l-2 -426q0 -75 13.5 -85t146.5 -94z" />
    <glyph glyph-name="u" unicode="u" horiz-adv-x="979" 
d="M520 890l151 190l224 -105q-11 -41 -25.5 -80t-14.5 -80l-14 -406v-6q0 -49 30 -80.5t69 -47.5l-200 -244l-218 190l-260 -190l-211 171q58 69 58 138l7 454q0 48 -74 96l152 190l223 -105q-11 -41 -25.5 -80t-14.5 -80l-13 -406q-2 -48 36 -101q12 -15 32 -15
q50 0 155 91l7 410q0 48 -74 96z" />
    <glyph glyph-name="v" unicode="v" horiz-adv-x="938" 
d="M529 14q-344 133 -465 185q34 67 52.5 106.5t21.5 151.5l1 205q0 80 -65.5 127t-91.5 65l223 230l193 -175l141 175q76 -33 155 -118q169 -181 200 -378q4 -23 4 -43q0 -67 -38 -108zM394 371q138 -64 186 -64q8 0 14 2q86 20 86 109q0 22 -5 49q-25 127 -90 210
t-138 130q-45 -42 -47 -103z" />
    <glyph glyph-name="w" unicode="w" horiz-adv-x="1290" 
d="M401 914q140 154 150 166l234 -171l130 175q70 -33 142 -118q154 -181 183 -378q3 -23 3 -44q0 -66 -34 -107l-304 -423q-21 7 -178.5 99.5t-155.5 96.5l-169 -179l-348 229q62 83 65 150l5 380q0 31 -29.5 51.5t-53.5 38.5l146 200zM522 297q15 34 19 58.5t4 101.5
l1 205q0 39 -17 73q-23 24 -35 37.5t-52 39.5q-63 -42 -65 -88l-11 -278q-2 -49 58.5 -89t97.5 -60zM781 371q128 -64 171 -64q7 0 13 2q79 20 79 113q0 20 -4 45q-24 127 -84 210t-127 130q-42 -43 -43 -103z" />
    <glyph glyph-name="x" unicode="x" horiz-adv-x="836" 
d="M262 323l12 -179q-116 -30 -265 -113q47 244 267 599q-69 120 -122 197q-19 27 -56 29.5t-71 2.5q39 55 94 110t156 111q53 -108 130 -251q87 121 184 251q129 -58 226 -103l-128 -230q-73 78 -145 108q-53 -68 -88 -115q113 -201 228 -371q51 -78 137 -84
q-135 -152 -255 -254q-59 124 -116.5 251t-122.5 252q-65 -130 -65 -211z" />
    <glyph glyph-name="y" unicode="y" horiz-adv-x="976" 
d="M464 34l-112 51l-241 74q60 75 60 181l8 454q0 50 -74 96l151 190l240 -159q-11 -41 -30.5 -58.5t-23.5 -58.5l-45 -469q-3 -31 40.5 -96t109.5 -68q104 239 110 623q2 47 -72 96l151 190l226 -159q-11 -41 -23 -53.5t-37 -124t-107.5 -307.5t-181 -366.5t-201 -297
t-183.5 -168.5l-194 158q292 107 429 272z" />
    <glyph glyph-name="z" unicode="z" horiz-adv-x="776" 
d="M391 461q-58 51 -181 106l246 262q-41 7 -89 7q-124 0 -291 -51l59 319q119 -46 255 -46q17 0 103 3.5t242 8.5l-251 -303q157 -125 211.5 -241.5t54.5 -229.5q-4 -247 -206 -466q-148 -161 -308 -161q-60 0 -127.5 25t-67.5 158q0 161 48 280q73 184 302 329zM245 -141
q43 -31 84.5 -31t81.5 28q149 107 149 262q0 91 -53 194q-25 6 -67 6t-111.5 -39.5t-108.5 -92t-60 -152.5q-3 -16 -3 -32q0 -80 88 -143z" />
    <glyph glyph-name="braceleft" unicode="{" horiz-adv-x="555" 
d="M563 -49q0 -20 -28.5 -23t-33.5 -3l-28 -2h-21q-80 0 -164 32q-49 27 -77 58q-27 24 -39 71l-2 432q0 31 -11 71q-14 51 -33 70q-29 31 -66.5 42.5t-40 17t-2.5 11.5q0 16 21 20q59 13 87 41q32 43 32 106v488q4 25 33 58q48 57 96 69q108 18 234 18h31q20 0 20 -20v-23
q0 -8 -6 -14t-19 -6.5t-33.5 -4.5t-40.5 -10q-34 -10 -73 -28q-22 -26 -31 -49v-471q-17 -98 -104 -179q45 -39 78 -82q28 -45 28 -112v-434q13 -42 26 -57q16 -17 44 -36q12 -4 22.5 -5t20.5 -1h29q20 4 24 4h6q21 0 21 -20v-29z" />
    <glyph glyph-name="bar" unicode="|" horiz-adv-x="236" 
d="M171 0h-122v1534h122v-1534z" />
    <glyph glyph-name="braceright" unicode="}" horiz-adv-x="596" 
d="M220 -68q-20 -4 -49 -4h-77q-20 0 -46.5 2t-26.5 22v29q0 9 7.5 15.5t17.5 4.5q18 -4 30 -4h19l16 2q2 0 3 1t3 1h-4q6 2 16 3.5t21 5.5q30 9 55 67v481q3 33 23 70q49 65 135 100q-30 14 -47 25v-2q-38 21 -80 78q-2 3 -3 7t-3 7l-12 29q-4 8 -4 20l-2 11v423
q0 45 -25 86q-12 14 -47 37h4q-16 5 -47 9l-49 2h-17q-20 0 -20 20v31q0 20 20 20h37l41 2q89 0 140 -11.5t96 -33.5q40 -27 52 -56q19 -50 19 -114v-389q2 -14 4.5 -28.5t4.5 -24.5t4 -23t8 -30l-2 2q6 -19 18 -31q46 -27 78 -37t35 -15.5t3 -12.5q0 -17 -17 -19
q-77 -6 -113 -70l2 2q-21 -39 -27 -96q2 -48 2 -94v-239q0 -54 -2 -111v-13q-4 -34 -14 -50q-12 -20 -12 -23l2 2q-21 -39 -60 -58h2q-49 -28 -112 -28z" />
    <glyph glyph-name="asciitilde" unicode="~" horiz-adv-x="635" 
d="M177 835l-6 -2q-13 -16 -28 -32t-21 -25q-10 -15 -21 -15h-8q-32 0 -45 21q-4 4 -4 10t9 24q23 51 103 146q10 9 13 11q36 24 46.5 23.5t11.5 -1t3 -0.5l-18 -21l24 19l2 2l246 -103h6q11 0 29 6q8 8 16.5 22.5t14.5 25.5q11 20 28 14l39 -13q15 -5 15 -18
q0 -27 -123 -166q-23 -35 -56 -35h-16q-11 0 -26.5 8t-29.5 12.5t-25.5 9.5t-15 6t-26.5 10q-59 24 -129 61h-8zM233 994q-1 0 -1 1q0 -1 1 -1zM185 835h-2h2z" />
    <glyph glyph-name="uni00A0" unicode="&#xa0;" horiz-adv-x="333" 
 />
    <glyph glyph-name="exclamdown" unicode="&#xa1;" horiz-adv-x="454" 
d="M218 681l-206 205l206 206l206 -206zM436 -224l-342 -290l32 1000l180 161q0 -280 18.5 -522t111.5 -349z" />
    <glyph glyph-name="cent" unicode="&#xa2;" horiz-adv-x="875" 
d="M533 345q117 36 166 118q21 -15 42.5 -29.5t43.5 -29.5q-85 -83 -159.5 -143t-92.5 -75v-186h-122v82q-31 -28 -57 -53q-320 212 -320 494q0 139 89.5 273.5t288.5 293.5v34h122v-108q95 -58 298 -170l-200 -176q-60 32 -99 55v-380zM412 801q-18 9 -35 17t-34.5 8
t-37.5 -20q-62 -63 -62 -142q0 -139 162 -297l6 -6z" />
    <glyph glyph-name="sterling" unicode="&#xa3;" horiz-adv-x="1166" 
d="M99 533l53 156l92 -1q-5 67 -49.5 169t-64 181t-19.5 107q0 70 54 94q166 73 345 134.5t299 112t163 50.5t68 -18q55 -41 82 -143q-142 -3 -282 -33t-238 -85q-22 -11 -65 -36q-85 -51 -85 -127q0 -26 49 -232q16 -71 16 -115.5t-1 -60.5l226 -1l-53 -156l-196 1
q-26 -91 -77 -129q338 -95 684 -95h35q-46 -74 -74.5 -114t-73.5 -112q-33 -49 -100 -49q-29 0 -147.5 25t-319 65.5t-399.5 82.5q159 192 203 328z" />
    <glyph glyph-name="currency" unicode="&#xa4;" horiz-adv-x="1024" 
d="M905 702q0 -143 -80 -229l172 -166q4 -4 4 -9t-6 -13l-67 -72q-5 -7 -9 -7q-11 0 -20 7l-176 166q-76 -57 -213.5 -57t-218.5 63l-168 -174q-10 -13 -25 2l-67 76q-6 6 -6 12t8 12l168 162q-76 81 -80 207q5 148 86 233l-170 152q-11 11 -11 18.5t7 16.5l69 74q5 6 11 6
t14 -8l180 -170q85 55 211 55t207 -55l172 167q5 6 11 6t12 -6l67 -67q15 -14 4 -25l-164 -153q53 -59 73 -166q5 -30 5 -58zM516 465q49 0 87 16.5t63 46.5q51 58 51 162q0 155 -113 208q-38 17 -88 17t-89 -18t-65 -49q-51 -63 -51 -158q0 -93 55 -157q58 -68 150 -68z
" />
    <glyph glyph-name="yen" unicode="&#xa5;" horiz-adv-x="1085" 
d="M127 827h232l-198 470h-93v68h426v-68h-87l229 -551l152 368q39 94 39 115q0 54 -35 64q-16 4 -75 4v68h328v-68q-60 -3 -71 -6q-27 -7 -63.5 -73t-42.5 -85l-126 -306h244v-86h-280l-39 -95v-129h319v-86h-319v-363h121v-68h-456v68h122v363h-327v86h327v85l-59 139
h-268v86z" />
    <glyph glyph-name="brokenbar" unicode="&#xa6;" horiz-adv-x="1024" 
d="M457 1365h109v-672h-109v672zM457 314h109v-655h-109v655z" />
    <glyph glyph-name="section" unicode="&#xa7;" horiz-adv-x="973" 
d="M618 1119l11 87q0 35 -32 59.5t-102.5 24.5t-123 -41.5t-52.5 -82.5q0 -68 42 -114q38 -46 196 -133q370 -200 370 -401q0 -79 -50 -147t-172 -141q79 -65 124 -131q33 -56 33 -126t-44.5 -132t-132.5 -97.5t-226 -35.5t-226.5 65.5t-88.5 150.5q0 48 34.5 79.5
t84.5 31.5t85 -29.5t35 -57.5t-13 -60.5t-13 -53.5t32 -42t107 -21t126.5 38t51.5 94.5t-33 97.5q-47 51 -215 141t-266.5 192.5t-98.5 184.5t50 153t171 159q-157 113 -157 232.5t106.5 204t266 84.5t256.5 -69t97 -149q0 -48 -34.5 -79t-84.5 -31t-82 28t-32 67zM338 791
q-99 -73 -99 -156q0 -43 30 -90q31 -44 102 -95l283 -183q57 48 72 75q28 50 28 87q0 87 -138 182z" />
    <glyph glyph-name="dieresis" unicode="&#xa8;" horiz-adv-x="882" 
d="M544 1106l70 320q133 -27 241 -89q-144 -136 -311 -231zM259 1076l46 369q127 -31 226 -86q-120 -153 -272 -283z" />
    <glyph glyph-name="copyright" unicode="&#xa9;" horiz-adv-x="1311" 
d="M620 974q-134 0 -134 -219q0 -73 15.5 -141t33 -101.5t39.5 -60.5q46 -53 105 -53q117 0 166 131l2 9h42l22 1l-9 -21q-38 -95 -109.5 -149t-145 -54t-127.5 28t-94 78q-86 108 -86 254q0 104 68 220q83 138 221 138q74 0 147 -50q14 -10 30 -10q32 0 54 45l4 6h60
l-90 -175l-5 -9h-42q-32 105 -106 126q-25 7 -61 7zM655 1181q104 0 194.5 -40t158.5 -108q144 -146 144 -357t-144 -358q-146 -147 -352 -147q-208 0 -354 147q-143 146 -143 358q0 208 143 355q147 150 353 150zM975 1000q-134 136 -319 136q-190 0 -322 -134
q-132 -133 -132 -326q0 -185 128 -322q131 -139 326 -139q188 0 318 133q133 137 133 328q0 94 -36 179t-96 145z" />
    <glyph glyph-name="ordfeminine" unicode="&#xaa;" horiz-adv-x="609" 
d="M24 1316l258 209l292 -136q-52 -45 -53 -101l-2 -219q0 -22 23.5 -50.5t44.5 -45.5l-134 -138l-102 105q-37 -29 -74.5 -54t-67.5 -52q-99 37 -185 114q25 31 29 91l-2 199v5q0 39 -27 73zM251 1367q-38 -58 -38 -103v-161q0 -50 16.5 -71.5t29 -38.5t41.5 -25l54 39v304
z" />
    <glyph glyph-name="guillemotleft" unicode="&#xab;" horiz-adv-x="1235" 
d="M39 575l463 488l166 -105l-301 -378l301 -387l-166 -105zM530 575l463 488l166 -105l-301 -378l301 -387l-166 -105z" />
    <glyph glyph-name="logicalnot" unicode="&#xac;" horiz-adv-x="690" 
d="M96 701h498v-227h-85v127h-413v100z" />
    <glyph glyph-name="uni00AD" unicode="&#xad;" horiz-adv-x="690" 
d="M96 701h495v-100h-495v100z" />
    <glyph glyph-name="registered" unicode="&#xae;" horiz-adv-x="1311" 
d="M632 1186q109 0 206 -39.5t168 -106.5q153 -144 153 -349t-153 -351q-151 -145 -374 -145q-219 0 -373 145q-153 143 -153 351q0 203 152 347q155 148 374 148zM555 676h121q96 11 96 119q0 9 -1 18t-4 40t-12.5 59t-28.5 41q-26 18 -116 18h-55v-295zM904 462
q12 19 12 50v15l44 -3l14 -2v-13q0 -83 -29 -130.5t-97.5 -47.5t-112 39t-51.5 85t-13 73t-13 47q-18 44 -56 44h-50l-1 -203q0 -7 19 -14t26 -7h16v-56h-272v56h16q10 0 27.5 7t17.5 14v544q0 2 -15.5 6.5t-29.5 4.5h-16v56h371q137 -8 186 -99q20 -37 20 -92
q0 -184 -163 -214q28 -20 40.5 -50t22 -56.5t22 -46t34 -19.5t31.5 12zM971 1009q-141 132 -339 132q-201 0 -340 -132q-141 -133 -141 -318q0 -181 137.5 -316.5t343.5 -135.5q199 0 338 129q144 135 144 318.5t-143 322.5z" />
    <glyph glyph-name="macron" unicode="&#xaf;" horiz-adv-x="690" 
d="M88 1413h495v-100h-495v100z" />
    <glyph glyph-name="degree" unicode="&#xb0;" horiz-adv-x="683" 
d="M274 1512q28 26 62 26t75 -35q251 -221 251 -433q0 -228 -256 -461q-42 -37 -82 -37t-76 37q-220 226 -220 452t246 451zM188 1308q-44 -29 -44 -100.5t75 -207.5q100 -182 183 -182q24 0 47 15q46 30 46 102t-73 206q-101 183 -186 183q-24 0 -48 -16z" />
    <glyph glyph-name="plusminus" unicode="&#xb1;" horiz-adv-x="1024" 
d="M430 311v285h-324v156h324v266h168v-266h322v-156h-322v-285h-168zM920 166v-156h-814v156h814z" />
    <glyph glyph-name="uni00B2" unicode="&#xb2;" horiz-adv-x="723" 
d="M668 922q-10 -63 -51 -292q-140 21 -216 21q-215 0 -388 -21q208 192 314 330.5t106 232.5q0 101 -148 182q-21 11 -36 11t-25 -8q-23 -16 -5.5 -56.5t56 -67t75.5 -47.5q-34 -48 -68 -94.5t-67 -92.5q-153 134 -153 217t112 200t186 117q76 0 180.5 -97.5t104.5 -192.5
q0 -54 -36 -106q-100 -141 -262 -309l119 -1q30 0 60 1q83 1 117 91q8 -7 25 -18z" />
    <glyph glyph-name="uni00B3" unicode="&#xb3;" horiz-adv-x="678" 
d="M472 1277q176 -157 176 -306q0 -125 -130 -228t-242 -103q-28 0 -56 7q-132 35 -207 195q44 48 88 95.5t88 96.5q29 -191 103 -260q32 -31 71.5 -31t87.5 50q45 47 45 91.5t-36 85.5q-76 89 -238 152q82 97 191 233q-80 10 -131.5 10t-83.5 -5q-82 -11 -81 -80l-44 20
q23 85 42.5 158t42.5 158q104 -81 237.5 -85.5t270.5 -7.5q-178 -225 -194 -246z" />
    <glyph glyph-name="acute" unicode="&#xb4;" horiz-adv-x="1420" 
d="M1149 1351v65q0 159 50 323l230 -37z" />
    <glyph glyph-name="uni00B5" unicode="&#xb5;" horiz-adv-x="983" 
d="M45 890l151 190l1 -1l1 1l223 -105l-40 -150v-10l-13 -406q-2 -48 36 -101q12 -15 32 -15q50 0 155 91l7 410q0 48 -74 96l151 190l224 -105q-11 -41 -25.5 -80t-14.5 -80l-14 -406v-6q0 -49 30 -80.5t69 -47.5l-200 -244l-218 190l-243 -178q-55 -174 -162 -438
q-32 31 -106 49q65 235 81.5 517.5t19.5 448.5l3 174q0 48 -74 96z" />
    <glyph glyph-name="paragraph" unicode="&#xb6;" horiz-adv-x="1575" 
d="M1297 254q0 -25 26 -25q110 6 160 19q23 4 42 -9q18 -15 18 -38v-15q0 -40 -39 -48q-57 -11 -191 -18q-22 0 -23.5 -33t-3.5 -69.5t-3 -65.5q-4 -45 -50 -45t-47 46q-4 43 -7 139q-2 24 -32 23t-67 -1h-71q-24 0 -25.5 -32.5t-3 -67.5t-3.5 -62q-2 -45 -49 -45t-48 46
q-3 51 -6 138q-2 23 -25 23h-78q-303 0 -516.5 185.5t-213.5 447t213.5 447t516.5 185.5h24q25 0 25 26q-5 49 -7 67.5t15 33.5t36 15l70 -8l63 7q17 0 33.5 -14t14 -43.5t-4 -47.5t6.5 -26.5t22 -8.5h32q10 0 17 7.5t6 21.5t-2 29.5t-2.5 34.5t14.5 33.5t35 14.5l71 -8
l63 7q16 0 32 -11q17 -17 15 -44t-4.5 -60t21.5 -34q55 -5 94.5 -12t39.5 -48v-3q0 -23 -19.5 -38t-46.5 -8q-76 18 -90 5q-8 -7 -8 -17q-12 -210 -21.5 -489.5t-18.5 -506.5zM1032 1261q-4 -78 -41 -1013q0 -11 7.5 -18.5t27.5 -7.5h53q79 0 86.5 8t7.5 18
q-9 230 -18.5 515.5t-20.5 497.5q-2 21 -20.5 22t-31.5 1h-26q-24 -2 -24 -23zM797 1267q-87 -30 -142.5 -142.5t-55.5 -388t68.5 -383.5t171.5 -125q3 -1 5 -1l15 6q8 6 8 17l-19 506q-9 279 -19 489q0 10 -10 19q-7 4 -15 4z" />
    <glyph glyph-name="periodcentered" unicode="&#xb7;" horiz-adv-x="507" 
d="M254 1164l240 -240l-240 -240l-240 240z" />
    <glyph glyph-name="cedilla" unicode="&#xb8;" horiz-adv-x="1024" 
d="M555 0h68l-99 -154q54 15 111 15t109.5 -38.5t52.5 -102.5q0 -91 -89 -131q-61 -28 -142 -28q-160 0 -244 36l20 45q56 -19 116 -19q135 0 135 92q0 36 -24.5 54.5t-56.5 18.5t-57 -13l-30 29z" />
    <glyph glyph-name="uni00B9" unicode="&#xb9;" horiz-adv-x="486" 
d="M94 647q168 16 168 467q0 101 -10 220l-241 2l-10 54q256 51 461 205l-9 -911q-144 -5 -320 -91z" />
    <glyph glyph-name="ordmasculine" unicode="&#xba;" horiz-adv-x="570" 
d="M53 1338q154 103 255 186q51 -21 103 -77q112 -121 131 -251q3 -14 3 -42.5t-24 -56.5l-219 -279l-283 139q45 93 45 162l-1 153q-2 48 -10 66zM230 1361l-2 -281q6 -32 46 -50t53 -18t17 1q58 13 58 73q0 14 -3 31q-41 196 -169 244z" />
    <glyph glyph-name="guillemotright" unicode="&#xbb;" horiz-adv-x="1235" 
d="M733 88l-166 105l301 387l-301 378l166 105l463 -488zM242 88l-166 105l301 387l-301 378l166 105l463 -488z" />
    <glyph glyph-name="onequarter" unicode="&#xbc;" horiz-adv-x="1412" 
d="M138 647q168 16 168 467q0 101 -10 220l-241 2l-10 54q256 51 461 205l-9 -911q-144 -5 -320 -91zM1055 429v48t-9 140l204 226q-17 -234 -20 -403q55 5 116 17l-5 -200l-109 2q4 -120 18 -196q-113 -12 -295 -60q61 116 85 259l-323 5l298 700l256 8
q-245 -252 -381 -542q69 -5 108 -5t57 1zM257 -70q-20 0 -20 21q0 5 2 10l749 1454q4 10 17 10h71q22 0 22 -19q0 -4 -3 -9l-746 -1456q-4 -11 -16 -11h-76z" />
    <glyph glyph-name="onehalf" unicode="&#xbd;" horiz-adv-x="1535" 
d="M144 647q168 16 168 467q0 101 -10 220l-241 2l-10 54q256 51 461 205l-9 -911q-144 -5 -320 -91zM257 -70q-20 0 -20 21q0 5 2 10l749 1454q4 10 17 10h71q13 0 19 -9.5t0 -18.5l-746 -1456q-4 -11 -16 -11h-76zM1401 291q-10 -63 -51 -292q-140 21 -216 21
q-215 0 -388 -21q208 192 314 330.5t106 232.5q0 101 -148 182q-21 11 -36 11t-25 -7q-23 -17 -5.5 -57.5t56 -67t75.5 -47.5q-34 -48 -68 -94.5t-67 -92.5q-153 134 -153 217t112 200t186 117q76 0 180.5 -97.5t104.5 -192.5q0 -54 -36 -105q-100 -142 -262 -310l119 -1
q30 0 60 1q83 1 117 91q8 -7 25 -18z" />
    <glyph glyph-name="threequarters" unicode="&#xbe;" horiz-adv-x="1446" 
d="M1081 429v48t-9 140l204 226q-17 -234 -20 -403q55 5 116 17l-5 -200l-109 2q4 -120 18 -196q-113 -12 -295 -60q61 116 85 259l-323 5l298 700l256 8q-245 -252 -381 -542q69 -5 108 -5t57 1zM1136 1425q22 0 22 -19q0 -4 -3 -9l-746 -1456q-4 -11 -16 -11h-76
q-12 0 -17.5 10t-0.5 21l749 1454q4 10 17 10h71zM532 1277q176 -157 176 -306q0 -125 -130 -228t-242 -103q-28 0 -56 7q-132 35 -207 195q44 48 88 95.5t88 96.5q29 -191 103 -260q32 -31 71.5 -31t87.5 50q45 47 45 91.5t-36 85.5q-76 89 -238 152q82 97 191 233
q-80 10 -131.5 10t-83.5 -5q-82 -11 -81 -80l-44 20q23 85 42.5 158t42.5 158q104 -81 237.5 -85.5t270.5 -7.5q-178 -225 -194 -246z" />
    <glyph glyph-name="questiondown" unicode="&#xbf;" horiz-adv-x="546" 
d="M265 680l-206 205l206 206l206 -206zM74 415l216 235q121 -52 207 -193q-254 -359 -254 -525q0 -28 7 -50q50 -157 279 -170l-283 -282q-166 92 -200 254q-6 27 -6 58q0 153 144 398q67 115 67 162t-20 64q-56 49 -157 49z" />
    <glyph glyph-name="Agrave" unicode="&#xc0;" horiz-adv-x="1420" 
d="M226 1052q184 92 339 230t301 280q181 -177 280.5 -242.5t237.5 -114.5q-23 -36 -56 -63t-54 -62q-8 -19 -8 -54v-54l8 -536q2 -65 23 -81l102 -83l-177 -241l-228 194q21 162 21 411h-374q-37 -354 -216 -600t-321 -385q-51 35 -77 50q117 121 174.5 277t92 304
t34.5 248.5t-11 183.5q-28 210 -91 338zM405 1680q50 -164 50 -355v-33l-280 351zM1011 871q-2 85 -2 129.5t1 79.5q-107 76 -245 134q-10 1 -20 1q-72 0 -85 -75q-12 -61 -12 -139.5t2 -129.5h361z" />
    <glyph glyph-name="Aacute" unicode="&#xc1;" horiz-adv-x="1405" 
d="M697 1226q-102 26 -198 26q-236 0 -430 -160q1 10 -6.5 52.5t-5.5 52.5q263 216 572 338q404 -120 743 -330q-22 -36 -55 -63t-55 -62q-7 -19 -7 -54v-54l7 -536q3 -65 24 -81l101 -83l-176 -241l-229 194q22 157 22 411h-374q-38 -354 -216.5 -600t-321.5 -385
q-42 30 -76 50q116 121 173.5 277t98.5 329.5t41 340t-73 312.5q243 121 441 266zM1000 871q-2 119 -2 146.5t1 62.5q-99 70 -208 115q-71 -53 -108 -121.5t-44 -202.5h361zM1119 1405v65q0 159 50 323l230 -37z" />
    <glyph glyph-name="Acircumflex" unicode="&#xc2;" horiz-adv-x="1405" 
d="M697 1226q-102 26 -198 26q-236 0 -430 -160q1 10 -6.5 52.5t-5.5 52.5q263 216 572 338q404 -120 743 -330q-22 -36 -55 -63t-55 -62q-7 -19 -7 -54v-54l7 -536q3 -65 24 -81l101 -83l-176 -241l-229 194q22 157 22 411h-374q-38 -354 -216.5 -600t-321.5 -385
q-42 30 -76 50q116 121 173.5 277t98.5 329.5t41 340t-73 312.5q243 121 441 266zM1000 871q-2 119 -2 146.5t1 62.5q-99 70 -208 115q-71 -53 -108 -121.5t-44 -202.5h361zM452 1528q-25 0 -25 11q0 3 4 7l216 214q5 5 19 5h118q14 0 22 -5l211 -214q4 -4 4 -7
q0 -11 -23 -11h-53q-13 0 -16 3l-206 116q-196 -117 -206.5 -118t-13.5 -1h-51z" />
    <glyph glyph-name="Atilde" unicode="&#xc3;" horiz-adv-x="1405" 
d="M1144 1842l236 -214q-51 -122 -191 -209q-349 243 -475 243q-27 0 -44 -11q-96 -62 -107 -291l-284 280q108 198 294 198q132 0 296 -108q115 -66 162 -66t65 20q48 57 48 158zM226 1052q184 92 339 230t301 280q181 -177 280.5 -242.5t237.5 -114.5q-23 -36 -56 -63
t-54 -62q-8 -19 -8 -54v-54l8 -536q2 -65 23 -81l102 -83l-177 -241l-228 194q21 162 21 411h-374q-37 -354 -216 -600t-321 -385q-51 35 -77 50q117 121 174.5 277t92 304t34.5 248.5t-11 183.5q-28 210 -91 338zM1011 871q-2 85 -2 129.5t1 79.5q-107 76 -245 134
q-10 1 -20 1q-72 0 -85 -75q-12 -61 -12 -139.5t2 -129.5h361z" />
    <glyph glyph-name="Adieresis" unicode="&#xc4;" horiz-adv-x="1420" 
d="M226 1052q184 92 339 230t301 280q181 -177 280.5 -242.5t237.5 -114.5q-23 -36 -56 -63t-54 -62q-8 -19 -8 -54v-54l8 -536q2 -65 23 -81l102 -83l-177 -241l-228 194q21 162 21 411h-374q-37 -354 -216 -600t-321 -385q-51 35 -77 50q117 121 174.5 277t92 304
t34.5 248.5t-11 183.5q-28 210 -91 338zM351 1202l89 340l282 -53q-178 -172 -371 -287zM1370 1265q-193 87 -330 210l264 60zM1011 871q-2 85 -2 129.5t1 79.5q-107 76 -245 134q-10 1 -20 1q-72 0 -85 -75q-12 -61 -12 -139.5t2 -129.5h361z" />
    <glyph glyph-name="Aring" unicode="&#xc5;" horiz-adv-x="1405" 
d="M982 225q19 133 19 211t-11 78q-3 0 -6 -3h-374q-18 -229 -196.5 -475t-321.5 -385q-42 30 -76 50q116 121 173.5 277t92 295t34.5 233q0 168 -80 329q243 121 441 266q-102 26 -198 26q-236 0 -430 -160q1 10 -6.5 52.5t-5.5 52.5q217 178 459 290q-53 79 -53 157
q0 171 252 337q29 19 63.5 19t76.5 -26q257 -163 257 -318q0 -121 -138 -245q27 -12 132.5 -59.5t265.5 -146.5q-22 -36 -55 -63t-55 -62q-7 -19 -7 -54v-54l27 -411q3 -65 24 -81l101 -83l-176 -241zM980 746q-2 119 -2 146.5t1 62.5q-99 70 -208 115q-71 -53 -108 -121.5
t-44 -202.5h361zM607 1706q-45 -21 -45 -73.5t77 -152.5q102 -134 188 -134q24 0 47 11q46 22 46 74.5t-74 151.5q-103 135 -190 135q-25 0 -49 -12z" />
    <glyph glyph-name="AE" unicode="&#xc6;" horiz-adv-x="2159" 
d="M2167 1345l-170 -198q-156 108 -305 129q-8 -86 -12 -196h414v-236h-409q4 -114 24 -265l-230 -84q189 -170 525 -170q38 0 78 2l-218 -296q-425 46 -654 300q-111 123 -168 301l-412 4q-38 -354 -216.5 -600t-321.5 -385q-42 30 -76 50q116 121 173.5 277t98.5 329.5
t41 340t-73 312.5q243 121 441 266q-102 26 -198 26q-236 0 -430 -160q1 10 -6.5 52.5t-5.5 52.5q263 216 572 338q351 -104 655 -279q233 139 473 279q141 -97 410 -190zM639 871h353q-11 98 -11 209q5 2 9 5q-95 66 -199 110q-71 -53 -108 -121.5t-44 -202.5zM1401 577
l74 25q-30 219 -30 379t5 256q-60 -30 -97.5 -70t-54 -77.5t-16.5 -106.5t2 -103q7 -158 117 -303z" />
    <glyph glyph-name="Ccedilla" unicode="&#xc7;" horiz-adv-x="1080" 
d="M1009 1087q-114 97 -232 135q-7 -94 -7 -237t31 -330l-316 -141q80 -83 213 -125q73 -23 157.5 -23t173.5 15l-174 -366q-117 38 -215 75l-66 -103q54 15 111 15t109.5 -38.5t52.5 -102.5q0 -91 -89 -131q-61 -28 -142 -28q-160 0 -244 36l20 45q56 -19 116 -19
q135 0 135 92q0 36 -24.5 54.5t-56.5 18.5t-57 -13l-30 29l110 167q-109 44 -190 87q-169 90 -252.5 211t-100.5 292q-11 107 -11 219.5t4 208.5l822 405l240 -174zM497 1212q-165 -79 -165 -290q0 -191 94 -335q64 42 79 167q6 49 6 152.5t-14 305.5z" />
    <glyph glyph-name="Egrave" unicode="&#xc8;" horiz-adv-x="1215" 
d="M1211 1345l-170 -198q-156 108 -305 129q-9 -86 -12 -196h413v-236h-408q3 -114 23 -265l-230 -84q189 -170 526 -170q38 0 78 2l-219 -296q-425 46 -653.5 300t-228.5 749l776 455q141 -97 410 -190zM445 577l74 25q-30 219 -30 379t5 256q-60 -30 -97.5 -70t-54 -77.5
t-16.5 -106t2 -103.5q7 -158 117 -303zM365 1769q50 -164 50 -355v-33l-280 351z" />
    <glyph glyph-name="Eacute" unicode="&#xc9;" horiz-adv-x="1215" 
d="M1211 1345l-170 -198q-156 108 -305 129q-9 -86 -12 -196h413v-236h-408q3 -114 23 -265l-230 -84q189 -170 526 -170q38 0 78 2l-219 -296q-425 46 -653.5 300t-228.5 749l776 455q141 -97 410 -190zM445 577l74 25q-30 219 -30 379t5 256q-60 -30 -97.5 -70t-54 -77.5
t-16.5 -106t2 -103.5q7 -158 117 -303zM995 1506v65q0 159 50 323l230 -37z" />
    <glyph glyph-name="Ecircumflex" unicode="&#xca;" horiz-adv-x="1215" 
d="M1211 1345l-170 -198q-156 108 -305 129q-9 -86 -12 -196h413v-236h-408q3 -114 23 -265l-230 -84q189 -170 526 -170q38 0 78 2l-219 -296q-425 46 -653.5 300t-228.5 749l776 455q141 -97 410 -190zM445 577l74 25q-30 219 -30 379t5 256q-60 -30 -97.5 -70t-54 -77.5
t-16.5 -106t2 -103.5q7 -158 117 -303zM521 1539q-25 0 -25 11q0 3 4 7l216 214q5 5 19 5h118q14 0 22 -5l211 -214q4 -4 4 -7q0 -11 -23 -11h-53q-13 0 -16 3l-206 116q-196 -117 -206.5 -118t-13.5 -1h-51z" />
    <glyph glyph-name="Edieresis" unicode="&#xcb;" horiz-adv-x="1195" 
d="M1266 1636q-12 -124 -12 -252q-81 14 -185 55.5t-163 124.5zM261 1305q-35 185 -35 255.5t7 116.5l428 -122q-96 -58 -197 -125.5t-203 -124.5zM1211 1345l-170 -198q-156 108 -305 129q-9 -86 -12 -196h413v-236h-408q3 -114 23 -265l-230 -84q189 -170 526 -170
q38 0 78 2l-219 -296q-425 46 -653.5 300t-228.5 749l776 455q141 -97 410 -190zM445 577l74 25q-30 219 -30 379t5 256q-60 -30 -97.5 -70t-54 -77.5t-16.5 -106t2 -103.5q7 -158 117 -303z" />
    <glyph glyph-name="Igrave" unicode="&#xcc;" horiz-adv-x="1062" 
d="M1030 1516q-93 -164 -125 -224q22 -251 41 -415t19 -222q0 -169 -65 -264q-93 -65 -188.5 -160t-192.5 -200q-175 82 -407 193q-84 34 -84 121q0 23 8.5 71.5t21 119t24.5 141.5q109 -143 233 -227.5t256 -135.5q18 -7 44.5 -7t56 35t29.5 93.5t-9.5 146.5t-32.5 224
t-43 274q79 63 166 157q-68 -7 -165.5 -7t-194 19.5t-154.5 19.5q-115 0 -202 -53q48 185 144 346q293 -48 664 -48q76 0 156 2zM606 1954q50 -164 50 -355v-33l-280 351z" />
    <glyph glyph-name="Iacute" unicode="&#xcd;" horiz-adv-x="1062" 
d="M1030 1516q-93 -164 -125 -224q22 -251 41 -415t19 -222q0 -169 -65 -264q-93 -65 -188.5 -160t-192.5 -200q-175 82 -407 193q-84 34 -84 121q0 23 8.5 71.5t21 119t24.5 141.5q109 -143 233 -227.5t256 -135.5q18 -7 44.5 -7t56 35t29.5 93.5t-9.5 146.5t-32.5 224
t-43 274q79 63 166 157q-68 -7 -165.5 -7t-194 19.5t-154.5 19.5q-115 0 -202 -53q48 185 144 346q293 -48 664 -48q76 0 156 2zM559 1566v65q0 159 50 323l230 -37z" />
    <glyph glyph-name="Icircumflex" unicode="&#xce;" horiz-adv-x="1062" 
d="M1030 1516q-93 -164 -125 -224q22 -251 41 -415t19 -222q0 -169 -65 -264q-93 -65 -188.5 -160t-192.5 -200q-175 82 -407 193q-84 34 -84 121q0 23 8.5 71.5t21 119t24.5 141.5q109 -143 233 -227.5t256 -135.5q18 -7 44.5 -7t56 35t29.5 93.5t-9.5 146.5t-32.5 224
t-43 274q79 63 166 157q-68 -7 -165.5 -7t-194 19.5t-154.5 19.5q-115 0 -202 -53q48 185 144 346q293 -48 664 -48q76 0 156 2zM307 1611q-25 0 -25 11q0 3 4 7l216 214q5 5 19 5h118q14 0 22 -5l211 -214q4 -4 4 -7q0 -11 -23 -11h-53q-13 0 -16 3l-206 116
q-196 -117 -206.5 -118t-13.5 -1h-51z" />
    <glyph glyph-name="Idieresis" unicode="&#xcf;" horiz-adv-x="1062" 
d="M1030 1516q-93 -164 -125 -224q22 -251 41 -415t19 -222q0 -169 -65 -264q-93 -65 -188.5 -160t-192.5 -200q-175 82 -407 193q-84 34 -84 121q0 23 8.5 71.5t21 119t24.5 141.5q109 -143 233 -227.5t256 -135.5q18 -7 44.5 -7t56 35t29.5 93.5t-9.5 146.5t-32.5 224
t-43 274q79 63 166 157q-68 -7 -165.5 -7t-194 19.5t-154.5 19.5q-115 0 -202 -53q48 185 144 346q293 -48 664 -48q76 0 156 2zM713.32 1352.27l68.2402 223.73q129.655 -18.877 234.939 -62.2256q-140.379 -95.085 -303.18 -161.505zM435.487 1331.29l44.8428 257.989
q123.807 -21.6738 220.317 -60.1279q-116.982 -106.971 -265.16 -197.861z" />
    <glyph glyph-name="Eth" unicode="&#xd0;" horiz-adv-x="1295" 
d="M117 897q9 -80 81 -80h4l25 1l-2 20q-14 156 -105 246q234 11 449 96q-218 109 -522 109h-32l329 246q461 -71 684.5 -327t240.5 -674l-589 -503q-285 144 -676 239l220 232q6 79 7 154q-212 -15 -246 -79q45 113 66 160.5t66 159.5zM592 531q-21 2 -41 2
q-101 0 -192 -41q240 -175 373 -175q55 0 92 31q113 95 113 274q0 131 -59 253q-41 -67 -67.5 -92t-80.5 -117q-82 1 -172 1q7 -59 34 -136zM616 1154q-31 -57 -49 -109.5t-18 -100.5q0 -81 1 -117l176 6q72 2 145 55q-86 164 -255 266z" />
    <glyph glyph-name="Ntilde" unicode="&#xd1;" horiz-adv-x="1374" 
d="M1195 1821l236 -214q-51 -122 -191 -209q-327 296 -436 296q-13 0 -23 -4q-94 -39 -120 -239q-56 40 -127 110.5t-142 140.5q91 167 242 194q20 3 41 3q132 0 273 -142q109 -109 164 -109q21 0 34 16q49 56 49 157zM666 331l-167 -300q-289 146 -462 236q222 207 247 291
q4 15 4 35q0 95 -83 278t-110.5 251.5t-27.5 105.5t13 64q27 62 131 113.5t316 129.5q30 -70 44 -105q-140 -46 -148 -116q-1 -9 -1 -19q0 -65 45 -159q92 98 193.5 208.5t179.5 190.5q120 -65 243 -129.5t256 -110.5q-163 -110 -170 -373l-13 -372v-21q0 -162 116 -198
q-82 -150 -158 -300q-145 53 -201 165.5t-56 314.5v21l3 252q0 91 32.5 159t84.5 137q-104 77 -204 77q-113 0 -249 -125l1 -3q75 -140 75 -232q0 -25 -6 -47q-27 -101 -190 -313q94 -68 262 -106z" />
    <glyph glyph-name="Ograve" unicode="&#xd2;" horiz-adv-x="1626" 
d="M936 1535q-9 -129 -10 -220q48 47 96 96.5t95 90.5q144 -293 477 -493q-2 -240 -85.5 -423.5t-201.5 -307t-247 -186t-220 -62.5q-424 0 -591.5 270.5t-214.5 631.5q161 233 377 395t525 208zM925 1187q4 -457 110 -692q-251 -60 -328 -205q98 -59 208 -59q11 0 21 1
q158 5 260 91q120 100 120 259q0 119 -83 276t-308 329zM617 359q38 106 38 275q0 16 -2.5 103.5t-4.5 248.5t-24 319q-220 -128 -220 -405q0 -23 2 -47q19 -314 211 -494zM998 1896q50 -164 50 -355v-33l-280 351z" />
    <glyph glyph-name="Oacute" unicode="&#xd3;" horiz-adv-x="1626" 
d="M936 1535q-9 -129 -10 -220q48 47 96 96.5t95 90.5q144 -293 477 -493q-2 -240 -85.5 -423.5t-201.5 -307t-247 -186t-220 -62.5q-424 0 -591.5 270.5t-214.5 631.5q161 233 377 395t525 208zM925 1187q4 -457 110 -692q-251 -60 -328 -205q98 -59 208 -59q11 0 21 1
q158 5 260 91q120 100 120 259q0 119 -83 276t-308 329zM617 359q38 106 38 275q0 16 -2.5 103.5t-4.5 248.5t-24 319q-220 -128 -220 -405q0 -23 2 -47q19 -314 211 -494zM1008 1491v65q0 159 50 323l230 -37z" />
    <glyph glyph-name="Ocircumflex" unicode="&#xd4;" horiz-adv-x="1626" 
d="M936 1535q-9 -129 -10 -220q48 47 96 96.5t95 90.5q144 -293 477 -493q-2 -240 -85.5 -423.5t-201.5 -307t-247 -186t-220 -62.5q-424 0 -591.5 270.5t-214.5 631.5q161 233 377 395t525 208zM925 1187q4 -457 110 -692q-251 -60 -328 -205q98 -59 208 -59q11 0 21 1
q158 5 260 91q120 100 120 259q0 119 -83 276t-308 329zM617 359q38 106 38 275q0 16 -2.5 103.5t-4.5 248.5t-24 319q-220 -128 -220 -405q0 -23 2 -47q19 -314 211 -494zM606 1578q-25 0 -25 11q0 3 4 7l216 214q5 5 19 5h118q14 0 22 -5l211 -214q4 -4 4 -7
q0 -11 -23 -11h-53q-13 0 -16 3l-206 116q-196 -117 -206.5 -118t-13.5 -1h-51z" />
    <glyph glyph-name="Otilde" unicode="&#xd5;" horiz-adv-x="1626" 
d="M936 1535q-9 -129 -10 -220q48 47 96 96.5t95 90.5q144 -293 477 -493q-2 -240 -85.5 -423.5t-201.5 -307t-247 -186t-220 -62.5q-424 0 -591.5 270.5t-214.5 631.5q161 233 377 395t525 208zM925 1187q4 -457 110 -692q-251 -60 -328 -205q98 -59 208 -59q11 0 21 1
q158 5 260 91q120 100 120 259q0 119 -83 276t-308 329zM617 359q38 106 38 275q0 16 -2.5 103.5t-4.5 248.5t-24 319q-220 -128 -220 -405q0 -23 2 -47q19 -314 211 -494zM1127 1914l236 -214q-51 -122 -191 -209q-349 243 -475 243q-27 0 -44 -11q-96 -62 -107 -291
l-284 280q108 198 294 198q132 0 296 -108q115 -66 162 -66t65 21q48 56 48 157z" />
    <glyph glyph-name="Odieresis" unicode="&#xd6;" horiz-adv-x="1642" 
d="M944 1535q-9 -129 -10 -220q47 47 95 96.5t96 90.5q144 -293 476 -493q-1 -240 -85 -423.5t-202 -307t-246.5 -186t-220.5 -62.5q-423 0 -590.5 270.5t-215.5 631.5q161 233 377.5 395t525.5 208zM1211 1455l360 72q-9 -93 -9 -195.5t-32 -184.5q-88 53 -174 139
t-145 169zM162 1190q-35 185 -35 255.5t7 116.5l402 -91q-175 -92 -374 -281zM932 1187q4 -457 110 -692q-251 -60 -327 -205q97 -59 208 -59q10 0 21 1q157 5 260 91q119 100 119 259q0 119 -83 276t-308 329zM625 359q37 106 37 274q0 17 -2.5 104.5t-4 248.5t-24.5 319
q-219 -128 -219 -406q0 -23 1 -46q19 -314 212 -494z" />
    <glyph glyph-name="multiply" unicode="&#xd7;" horiz-adv-x="906" 
d="M130 501l217 203l-206 217l110 105l206 -219l219 208l105 -110l-221 -208l205 -217l-110 -105l-205 217l-215 -201z" />
    <glyph glyph-name="Oslash" unicode="&#xd8;" horiz-adv-x="1626" 
d="M1294 1520h247l-211 -310q112 -110 264 -201q-2 -240 -85.5 -423.5t-201.5 -307t-247 -186t-220 -62.5q-163 0 -288 40l-52 -78h-248l117 172q-72 56 -120 136q-168 271 -215 632q161 233 377 395t525 208q-9 -129 -10 -220q48 47 96 96.5t95 90.5q33 -67 75 -130z
M1035 495q-251 -60 -328 -205q98 -59 208 -59q11 0 21 1q158 5 260 91q120 100 120 259q0 119 -77 264q-30 58 -78 116l-189 -276q25 -109 63 -191zM654 582q1 40 -1.5 141.5t-4.5 262.5t-24 319q-220 -128 -220 -407t147 -468zM925 1187q0 -105 6 -198l85 123
q-42 38 -91 75z" />
    <glyph glyph-name="Ugrave" unicode="&#xd9;" horiz-adv-x="1406" 
d="M1152 31q-140 88 -280 178q28 95 45 198l-340 -376q-86 76 -218 135t-282 111q199 133 249 305q14 47 14 96q0 131 -104.5 286t-104.5 292q0 216 270 370q52 -30 108 -60q-158 -108 -158 -197q0 -22 11 -43q50 -105 294 -184v-20q0 -313 -186 -627q160 -102 236 -102
q72 0 231 193q6 90 6 223t-17 328q1 9 1 17q0 45 -41 73.5t-85 62.5l239 264q106 -67 289 -175q-65 -87 -73.5 -171t-8.5 -173l-6 -390v-34q0 -123 27.5 -190t97.5 -94zM714 1823q50 -164 50 -355v-33l-280 351z" />
    <glyph glyph-name="Uacute" unicode="&#xda;" horiz-adv-x="1406" 
d="M1152 31q-140 88 -280 178q28 95 45 198l-340 -376q-86 76 -218 135t-282 111q199 133 249 305q14 47 14 96q0 131 -104.5 286t-104.5 292q0 216 270 370q52 -30 108 -60q-158 -108 -158 -197q0 -22 11 -43q50 -105 294 -184v-20q0 -313 -186 -627q160 -102 236 -102
q72 0 231 193q6 90 6 223t-17 328q1 9 1 17q0 45 -41 73.5t-85 62.5l239 264q106 -67 289 -175q-65 -87 -73.5 -171t-8.5 -173l-6 -390v-34q0 -123 27.5 -190t97.5 -94zM693 1445v65q0 159 50 323l230 -37z" />
    <glyph glyph-name="Ucircumflex" unicode="&#xdb;" horiz-adv-x="1406" 
d="M1152 31q-140 88 -280 178q28 95 45 198l-340 -376q-86 76 -218 135t-282 111q199 133 249 305q14 47 14 96q0 131 -104.5 286t-104.5 292q0 216 270 370q52 -30 108 -60q-158 -108 -158 -197q0 -22 11 -43q50 -105 294 -184v-20q0 -313 -186 -627q160 -102 236 -102
q72 0 231 193q6 90 6 223t-17 328q1 9 1 17q0 45 -41 73.5t-85 62.5l239 264q106 -67 289 -175q-65 -87 -73.5 -171t-8.5 -173l-6 -390v-34q0 -123 27.5 -190t97.5 -94zM503 1634q-25 0 -25 11q0 3 4 7l216 214q5 5 19 5h118q14 0 22 -5l211 -214q4 -4 4 -7q0 -11 -23 -11
h-53q-13 0 -16 3l-206 116q-196 -117 -206.5 -118t-13.5 -1h-51z" />
    <glyph glyph-name="Udieresis" unicode="&#xdc;" horiz-adv-x="1364" 
d="M1111 31q-140 88 -280 178q28 95 45 198l-340 -376q-86 76 -218 135t-282 111q199 133 250 305q13 47 13 96q0 131 -100 279q-130 190 -130 344q0 185 247 325q50 -29 114 -64q-147 -101 -147 -183q0 -29 19 -55q69 -103 313 -182v-14q0 -319 -186 -633
q160 -102 236 -102q72 0 231 193q6 89 6 221.5t-17 329.5q2 14 2 37.5t-20 39.5t-63 50q83 90 238 263q60 -38 245 -148q-65 -87 -73 -171t-8 -173l-6 -390v-34q0 -123 27.5 -190t97.5 -94zM745 1562l164 -127q-138 -149 -363 -158zM485 1629l196 -67q-84 -163 -287 -268z
" />
    <glyph glyph-name="Yacute" unicode="&#xdd;" horiz-adv-x="1346" 
d="M689 -565q-163 0 -346 97q-72 39 -159.5 39t-207.5 -74l-35 47q68 170 148.5 245.5t173.5 75.5q53 0 141 -34q240 -93 349 -93q204 0 236 130q9 35 9 78t-20.5 79.5t-69 172.5t-48.5 192q0 9 1 17l-340 -376q-86 76 -218.5 135t-281.5 111q199 133 249 305q14 47 14 96
q0 131 -105 286t-105 292q0 215 271 370q26 -15 53 -30t53 -30q-156 -108 -156 -196q0 -23 10 -44q51 -105 295 -184v-7q0 -326 -186 -640q160 -102 236 -102q72 0 231 193q6 92 6 227t-18 324q1 9 1 17q0 45 -40.5 73.5t-85.5 62.5l240 264q82 -52 288 -175
q-65 -87 -73 -171t-9 -173l-5 -390v-34q0 -123 27.5 -190t97.5 -94q-85 -116 -177.5 -417t-265.5 -419q-85 -56 -178 -56zM609 1329v65q0 159 50 323l230 -37z" />
    <glyph glyph-name="Thorn" unicode="&#xde;" horiz-adv-x="1297" 
d="M152 -350q78 226 102 605l-205 74l215 205v200t-13 483q-52 24 -105.5 48.5t-105.5 50.5l172 219q274 -80 395 -118q-3 -32 -13 -207t-13 -205l304 244q347 -262 347 -503q0 -257 -351 -715l-321 115q9 -161 39 -215q-164 -101 -447 -281zM891 331q124 0 124 170.5
t-174 298.5q-83 60 -153 60t-122 -80q-5 -43 -10 -296l329 -153h6z" />
    <glyph glyph-name="germandbls" unicode="&#xdf;" horiz-adv-x="1014" 
d="M894 1239q-68 -83 -313 -137q-37 23 -85.5 66.5t-98.5 50.5q-26 -37 -40 -59q27 -59 37 -166q98 -8 206.5 -8t221.5 15l70 -79l-163 -205q182 -177 182 -391q0 -98 -38 -204q-122 -337 -522 -601l-5 180q191 76 265.5 205.5t89.5 220.5q3 18 3 35q0 178 -278 312l185 313
h-210q-1 -88 -5 -179.5t-5 -173.5q-2 -187 -274 -853q-31 31 -78 41q68 248 82 533t14 472.5t-4 332.5q-2 82 -81 146q86 91 184 187t185 189q91 -30 232 -126.5t243 -116.5z" />
    <glyph glyph-name="agrave" unicode="&#xe0;" horiz-adv-x="922" 
d="M37 759l390 317l442 -207q-78 -68 -79 -153l-4 -331q0 -34 35.5 -77t67.5 -69l-202 -208l-155 159q-56 -45 -113 -82.5t-102 -78.5q-150 56 -280 173q37 47 43 137l-3 302v8q0 59 -40 110zM380 836q-58 -87 -58 -155v-245q0 -75 27 -107q23 -33 42.5 -59t62.5 -38l82 59
v460zM528 1470q50 -164 50 -355v-33l-280 351z" />
    <glyph glyph-name="aacute" unicode="&#xe1;" horiz-adv-x="922" 
d="M37 759l390 317l442 -207q-78 -68 -79 -153l-4 -331q0 -34 35.5 -77t67.5 -69l-202 -208l-155 159q-56 -45 -113 -82.5t-102 -78.5q-150 56 -280 173q37 47 43 137l-3 302v8q0 59 -40 110zM380 836q-58 -87 -58 -155v-245q0 -75 27 -107q23 -33 42.5 -59t62.5 -38l82 59
v460zM253 1049v65q0 159 50 323l230 -37z" />
    <glyph glyph-name="acircumflex" unicode="&#xe2;" horiz-adv-x="922" 
d="M37 759l390 317l442 -207q-78 -68 -79 -153l-4 -331q0 -34 35.5 -77t67.5 -69l-202 -208l-155 159q-56 -45 -113 -82.5t-102 -78.5q-150 56 -280 173q37 47 43 137l-3 302v8q0 59 -40 110zM380 836q-58 -87 -58 -155v-245q0 -75 27 -107q23 -33 42.5 -59t62.5 -38l82 59
v460zM180 1104q-25 0 -25 11q0 3 4 7l216 214q5 5 19 5h118q14 0 22 -5l211 -214q4 -4 4 -7q0 -11 -23 -11h-53q-13 0 -16 3l-206 116q-196 -117 -206.5 -118t-13.5 -1h-51z" />
    <glyph glyph-name="atilde" unicode="&#xe3;" horiz-adv-x="922" 
d="M37 759l390 317l442 -207q-78 -68 -79 -153l-4 -331q0 -34 35.5 -77t67.5 -69l-202 -208l-155 159q-56 -45 -113 -82.5t-102 -78.5q-150 56 -280 173q37 47 43 137l-3 302v8q0 59 -40 110zM380 836q-58 -87 -58 -155v-245q0 -75 27 -107q23 -33 42.5 -59t62.5 -38l82 59
v460zM584.889 1395.18l164.627 -180.602q-35.5762 -102.96 -133.236 -176.382q-243.452 205.076 -331.346 205.076q-18.834 0 -30.6934 -9.2832q-66.9668 -52.3242 -74.6396 -245.585l-198.11 236.301q75.3379 167.1 205.086 167.1q92.0791 0 206.48 -91.1455
q80.2207 -55.6992 113.007 -55.6992t45.3418 17.7227q33.4834 47.2598 33.4834 132.497z" />
    <glyph glyph-name="adieresis" unicode="&#xe4;" horiz-adv-x="909" 
d="M287 29q-231 224 -231 531q0 117 34 251l375 265q156 -100 345 -151l-29 -411q-1 -14 -1 -27q0 -133 89 -230l-179 -228l-175 197zM324 846q-30 -149 -30 -261q0 -209 105 -289q18 -15 40 -15t49 19q51 35 54 124l10 335q-126 25 -228 87zM249 1076l20 395
q138 -26 235 -91zM530 1110l99 364q131 -34 232 -98z" />
    <glyph glyph-name="aring" unicode="&#xe5;" horiz-adv-x="922" 
d="M259 1449q152 80 234 132q47 -15 95 -55q101 -84 120 -177q2 -11 2 -31t-22 -40l-200 -198l-260 99q41 61 41 115l-1 108q-1 34 -9 47zM422 1465l-2 -199q5 -23 46 -37t60 -11q54 10 54 53q0 10 -3 21q-39 140 -155 173zM37 759l390 317l442 -207q-78 -68 -79 -153
l-4 -331q0 -34 35.5 -77t67.5 -69l-202 -208l-155 159q-56 -45 -113 -82.5t-102 -78.5q-150 56 -280 173q37 47 43 137l-3 302v8q0 59 -40 110zM380 836q-58 -87 -58 -155v-245q0 -75 27 -107q23 -33 42.5 -59t62.5 -38l82 59v460z" />
    <glyph glyph-name="ae" unicode="&#xe6;" horiz-adv-x="1281" 
d="M328 1079q240 -96 324 -130l217 128v3l2 -1h1l389 -279l-405 -426q41 -49 91 -54t82.5 -5t77 3.5t109.5 5.5q-53 -74 -105 -147l-104 -146q-110 44 -325 129l-216 -127v-3l-2 1h-1l-389 279l405 426q-41 49 -91 54t-82.5 5t-77 -3.5t-109.5 -5.5q53 74 105 147zM841 810
q-58 0 -58 -158q0 -90 30 -180q0 -9 3 -15l161 170q17 18 17 36t-17.5 46t-35.5 46q-63 55 -100 55zM494 300q58 0 58 158q0 90 -30 180q0 9 -3 15l-161 -170q-17 -18 -17 -36t17.5 -46t35.5 -46q63 -55 100 -55z" />
    <glyph glyph-name="ccedilla" unicode="&#xe7;" horiz-adv-x="785" 
d="M484 329q67 0 122 92q21 -15 42.5 -29.5t43.5 -29.5q-85 -83 -154.5 -152.5t-124.5 -123.5l-92 -143q54 15 111 15t109.5 -38.5t52.5 -102.5q0 -91 -89 -131q-61 -28 -143 -28q-159 0 -243 36l20 45q56 -19 116 -19q135 0 135 92q0 36 -24.5 54.5t-56.5 18.5t-57 -13
l-30 29l99 150q-287 204 -287 472q0 139 90 274t290 295q86 -56 177 -109.5t179 -106.5l-200 -176q-60 37 -95.5 63.5t-75 44.5t-57 18t-37.5 -20q-62 -63 -62 -142q0 -139 162 -297q41 -38 79 -38z" />
    <glyph glyph-name="egrave" unicode="&#xe8;" horiz-adv-x="794" 
d="M520 31l-479 191q27 150 27 312.5t-31 339.5l345 203v3l2 -1h1l389 -279l-405 -426q41 -49 91 -54t82.5 -5t77 3.5t109.5 5.5q-53 -74 -105 -147zM354 810q-58 0 -58 -158q0 -90 30 -180q0 -9 3 -15l161 170q17 18 17 36t-17.5 46t-35.5 46q-63 55 -100 55zM554 1391
q50 -164 50 -355v-33l-280 351z" />
    <glyph glyph-name="eacute" unicode="&#xe9;" horiz-adv-x="794" 
d="M520 31l-479 191q27 150 27 312.5t-31 339.5l345 203v3l2 -1h1l389 -279l-405 -426q41 -49 91 -54t82.5 -5t77 3.5t109.5 5.5q-53 -74 -105 -147zM354 810q-58 0 -58 -158q0 -90 30 -180q0 -9 3 -15l161 170q17 18 17 36t-17.5 46t-35.5 46q-63 55 -100 55zM167 1026v65
q0 159 50 323l230 -37z" />
    <glyph glyph-name="ecircumflex" unicode="&#xea;" horiz-adv-x="794" 
d="M520 31l-479 191q27 150 27 312.5t-31 339.5l345 203v3l2 -1h1l389 -279l-405 -426q41 -49 91 -54t82.5 -5t77 3.5t109.5 5.5q-53 -74 -105 -147zM354 810q-58 0 -58 -158q0 -90 30 -180q0 -9 3 -15l161 170q17 18 17 36t-17.5 46t-35.5 46q-63 55 -100 55zM122 1133
q-25 0 -25 11q0 3 4 7l216 214q5 5 19 5h118q14 0 22 -5l211 -214q4 -4 4 -7q0 -11 -23 -11h-53q-13 0 -16 3l-206 116q-196 -117 -206.5 -118t-13.5 -1h-51z" />
    <glyph glyph-name="edieresis" unicode="&#xeb;" horiz-adv-x="794" 
d="M520 31l-479 191q27 150 27 312.5t-31 339.5l345 203v3l2 -1h1l389 -279l-405 -426q41 -49 91 -54t82.5 -5t77 3.5t109.5 5.5q-53 -74 -105 -147zM354 810q-58 0 -58 -158q0 -90 30 -180q0 -9 3 -15l161 170q17 18 17 36t-17.5 46t-35.5 46q-63 55 -100 55zM385 1106
l70 320q133 -27 241 -89q-144 -136 -311 -231zM100 1076l46 369q127 -31 226 -86q-120 -153 -272 -283z" />
    <glyph glyph-name="igrave" unicode="&#xec;" horiz-adv-x="470" 
d="M29 890l151 190l224 -105q-12 -41 -26 -80t-14 -80l-14 -406v-9q0 -47 30 -78t69 -47l-200 -244l-212 171q58 69 58 138l7 454q0 48 -73 96zM147 1559q50 -164 50 -355v-33l-280 351z" />
    <glyph glyph-name="iacute" unicode="&#xed;" horiz-adv-x="470" 
d="M29 890l151 190l224 -105q-12 -41 -26 -80t-14 -80l-14 -406v-9q0 -47 30 -78t69 -47l-200 -244l-212 171q58 69 58 138l7 454q0 48 -73 96zM203 1165v64.5t9 134t97 178.5l230 -37z" />
    <glyph glyph-name="icircumflex" unicode="&#xee;" horiz-adv-x="470" 
d="M29 890l151 190l224 -105q-12 -41 -26 -80t-14 -80l-14 -406v-9q0 -47 30 -78t69 -47l-200 -244l-212 171q58 69 58 138l7 454q0 48 -73 96zM-52 1171q-25 0 -25 11q0 3 4 7l216 214q5 5 19 5h118q14 0 22 -5l211 -214q4 -4 4 -7q0 -11 -23 -11h-53q-13 0 -16 3l-206 116
q-196 -117 -206.5 -118t-13.5 -1h-51z" />
    <glyph glyph-name="idieresis" unicode="&#xef;" horiz-adv-x="470" 
d="M29 890l151 190l224 -105q-12 -41 -26 -80t-14 -80l-14 -406v-9q0 -47 30 -78t69 -47l-200 -244l-212 171q58 69 58 138l7 454q0 48 -73 96zM222 1106l70 320q133 -27 241 -89q-144 -136 -311 -231zM-63 1076l46 369q127 -31 226 -86q-120 -153 -272 -283z" />
    <glyph glyph-name="eth" unicode="&#xf0;" horiz-adv-x="842" 
d="M176 1221l34 13q-28 33 -56 67l265 139q37 -46 72 -95l206 82l-66 -225l-39 -16q198 -350 227 -782q-125 -94 -211.5 -174t-142.5 -199q-110 49 -219.5 99.5t-201.5 134.5q-4 151 -6 303l-4 304q240 110 323 153q-16 27 -35 55l-212 -84zM562 286v21q0 336 -158 639
q-109 -52 -130 -188q-7 -53 -7 -135t20 -212q140 -111 275 -125z" />
    <glyph glyph-name="ntilde" unicode="&#xf1;" horiz-adv-x="929" 
d="M404 934l117 146l319 -231l-30 -118l-13 -322v-6q0 -49 30 -80.5t68 -47.5l-200 -244q-74 58 -113.5 103t-39.5 185v21l7 370q0 42 -128 140l-40 -63l-19 -378v-6q0 -49 30 -80.5t69 -47.5l-200 -244l-211 171q57 69 57 138l8 454q0 48 -74 96l151 190zM614.401 1286.67
l156.474 -150.221q-33.8135 -85.6396 -126.638 -146.711q-231.396 170.577 -314.937 170.577q-17.9014 0 -29.1729 -7.72168q-63.6504 -43.5215 -70.9443 -204.271l-188.299 196.551q71.6064 138.988 194.93 138.988q87.5195 0 196.255 -75.8115
q76.248 -46.3301 107.41 -46.3301t43.0967 14.7412q31.8252 39.3105 31.8252 110.209z" />
    <glyph glyph-name="ograve" unicode="&#xf2;" horiz-adv-x="864" 
d="M80 801q233 156 387 283q77 -33 155 -118q169 -181 200 -378q4 -23 4 -44q0 -66 -37 -107l-332 -423l-428 211q68 141 68 244l-2 233q-3 72 -15 99zM349 836l-3 -425q9 -49 69 -76.5t79.5 -27.5t26.5 2q88 20 88 111q0 21 -5 47q-34 165 -98.5 249.5t-156.5 119.5z
M239 1396q50 -164 50 -355v-33l-280 351z" />
    <glyph glyph-name="oacute" unicode="&#xf3;" horiz-adv-x="864" 
d="M80 801q233 156 387 283q77 -33 155 -118q169 -181 200 -378q4 -23 4 -44q0 -66 -37 -107l-332 -423l-428 211q68 141 68 244l-2 233q-3 72 -15 99zM349 836l-3 -425q9 -49 69 -76.5t79.5 -27.5t26.5 2q88 20 88 111q0 21 -5 47q-34 165 -98.5 249.5t-156.5 119.5z
M561 1075v65q0 159 50 323l230 -37z" />
    <glyph glyph-name="ocircumflex" unicode="&#xf4;" horiz-adv-x="864" 
d="M80 801q233 156 387 283q77 -33 155 -118q169 -181 200 -378q4 -23 4 -44q0 -66 -37 -107l-332 -423l-428 211q68 141 68 244l-2 233q-3 72 -15 99zM349 836l-3 -425q9 -49 69 -76.5t79.5 -27.5t26.5 2q88 20 88 111q0 21 -5 47q-34 165 -98.5 249.5t-156.5 119.5z
M193 1140q-25 0 -25 11q0 3 4 7l216 214q5 5 19 5h118q14 0 22 -5l211 -214q4 -4 4 -7q0 -11 -23 -11h-53q-13 0 -16 3l-206 116q-196 -117 -206.5 -118t-13.5 -1h-51z" />
    <glyph glyph-name="otilde" unicode="&#xf5;" horiz-adv-x="864" 
d="M80 801q233 156 387 283q77 -33 155 -118q169 -181 200 -378q4 -23 4 -44q0 -66 -37 -107l-332 -423l-428 211q68 141 68 244l-2 233q-3 72 -15 99zM349 836l-3 -425q9 -49 69 -76.5t79.5 -27.5t26.5 2q88 20 88 111q0 21 -5 47q-34 165 -98.5 249.5t-156.5 119.5z
M490.078 1254.51l132.447 -145.95q-28.6221 -83.2041 -107.192 -142.539q-195.865 165.728 -266.579 165.728q-15.1533 0 -24.6934 -7.50195q-53.877 -42.2842 -60.0508 -198.464l-159.386 190.962q60.6113 135.037 164.998 135.037q74.0811 0 166.121 -73.6562
q64.54 -45.0127 90.917 -45.0127t36.4795 14.3223q26.9385 38.1924 26.9385 107.075z" />
    <glyph glyph-name="odieresis" unicode="&#xf6;" horiz-adv-x="882" 
d="M77 801q229 152 388 283q76 -33 155 -118q169 -181 200 -378q4 -23 4 -43q0 -67 -38 -108l-331 -423l-429 211q25 52 47 112t22 132l-3 233q-2 72 -15 99zM544 1106l70 320q133 -27 241 -89q-144 -136 -311 -231zM259 1076l46 369q127 -31 226 -86q-120 -153 -272 -283z
M346 836l-2 -425q8 -49 68 -76.5t80 -27.5t27 2q87 20 87 110q0 22 -5 48q-34 165 -98 249.5t-157 119.5z" />
    <glyph glyph-name="oslash" unicode="&#xf8;" horiz-adv-x="864" 
d="M80 801q233 156 387 283q54 -24 110 -73l40 80l147 1l-93 -182q48 -60 92 -143q63 -118 63 -203.5t-37 -126.5l-332 -423l-193 95l-55 -108h-139l81 163l-122 61q68 141 68 244l-2 233q-3 72 -15 99zM386 351q15 -10 52 -27t56.5 -17t26.5 2q88 20 88 111q0 21 -14.5 91
t-52.5 146zM349 836l-3 -284l110 218q-47 44 -107 66z" />
    <glyph glyph-name="ugrave" unicode="&#xf9;" horiz-adv-x="979" 
d="M520 890l151 190l224 -105q-11 -41 -25.5 -80t-14.5 -80l-14 -406v-6q0 -49 30 -80.5t69 -47.5l-200 -244l-218 190l-260 -190l-211 171q58 69 58 138l7 454q0 48 -74 96l152 190l223 -105q-11 -41 -25.5 -80t-14.5 -80l-13 -406q-2 -48 36 -101q12 -15 32 -15
q50 0 155 91l7 410q0 48 -74 96zM447 1386q50 -164 50 -355v-33l-280 351z" />
    <glyph glyph-name="uacute" unicode="&#xfa;" horiz-adv-x="979" 
d="M520 890l151 190l224 -105q-11 -41 -25.5 -80t-14.5 -80l-14 -406v-6q0 -49 30 -80.5t69 -47.5l-200 -244l-218 190l-260 -190l-211 171q58 69 58 138l7 454q0 48 -74 96l152 190l223 -105q-11 -41 -25.5 -80t-14.5 -80l-13 -406q-2 -48 36 -101q12 -15 32 -15
q50 0 155 91l7 410q0 48 -74 96zM479 1030v65q0 159 50 323l230 -37z" />
    <glyph glyph-name="ucircumflex" unicode="&#xfb;" horiz-adv-x="979" 
d="M520 890l151 190l224 -105q-11 -41 -25.5 -80t-14.5 -80l-14 -406v-6q0 -49 30 -80.5t69 -47.5l-200 -244l-218 190l-260 -190l-211 171q58 69 58 138l7 454q0 48 -74 96l152 190l223 -105q-11 -41 -25.5 -80t-14.5 -80l-13 -406q-2 -48 36 -101q12 -15 32 -15
q50 0 155 91l7 410q0 48 -74 96zM192 1131q-25 0 -25 11q0 3 4 7l216 214q5 5 19 5h118q14 0 22 -5l211 -214q4 -4 4 -7q0 -11 -23 -11h-53q-13 0 -16 3l-206 116q-196 -117 -206.5 -118t-13.5 -1h-51z" />
    <glyph glyph-name="udieresis" unicode="&#xfc;" horiz-adv-x="966" 
d="M511 890l151 190l224 -105q-11 -41 -25.5 -80t-14.5 -80l-14 -406v-6q0 -49 30 -80.5t69 -47.5l-200 -244l-217 190l-260 -190l-212 171q58 69 58 138l7 454q0 48 -73 96l151 190l224 -105q-12 -41 -26 -80t-14 -80l-14 -406q-1 -48 37 -101q11 -15 31 -15q50 0 156 91
l6 410q0 48 -74 96zM551 1106l70 320q134 -27 241 -89q-143 -136 -311 -231zM266 1076l46 369q128 -31 227 -86q-120 -153 -273 -283z" />
    <glyph glyph-name="yacute" unicode="&#xfd;" horiz-adv-x="976" 
d="M464 34l-112 51l-241 74q60 75 60 181l8 454q0 50 -74 96l151 190l240 -159q-11 -41 -30.5 -58.5t-23.5 -58.5l-45 -469q-3 -31 40.5 -96t109.5 -68q104 239 110 623q2 47 -72 96l151 190l226 -159q-11 -41 -23 -53.5t-37 -124t-107.5 -307.5t-181 -366.5t-201 -297
t-183.5 -168.5l-194 158q292 107 429 272zM538 997v65q0 159 50 323l230 -37z" />
    <glyph glyph-name="thorn" unicode="&#xfe;" horiz-adv-x="877" 
d="M407 -264q-171 -27 -351 -147l-50 54q30 18 82.5 121.5t52.5 186.5l-10 1219q0 74 -100 124l11 47q199 70 429 194l63 -39q-142 -85 -143 -321l-1 -206l166 132q76 -32 140 -124q131 -188 153 -399q3 -25 3 -65t-22 -68l-331 -431l-105 52q1 -78 13 -330zM390 850
l-3 -433q9 -50 68.5 -77.5t80 -27.5t28.5 2q86 22 86 112q0 22 -5 48q-34 168 -98.5 254t-156.5 122z" />
    <glyph glyph-name="ydieresis" unicode="&#xff;" horiz-adv-x="976" 
d="M464 34l-112 51l-241 74q60 75 60 181l8 454q0 50 -74 96l151 190l240 -159q-11 -41 -30.5 -58.5t-23.5 -58.5l-45 -469q-3 -31 40.5 -96t109.5 -68q104 239 110 623q2 47 -72 96l151 190l226 -159q-11 -41 -23 -53.5t-37 -124t-107.5 -307.5t-181 -366.5t-201 -297
t-183.5 -168.5l-194 158q292 107 429 272zM633 1081l70 320q133 -27 241 -89q-144 -136 -311 -231zM348 1051l46 369q127 -31 226 -86q-120 -153 -272 -283z" />
    <glyph glyph-name="OE" unicode="&#x152;" horiz-adv-x="1857" 
d="M1831 1345l-170 -198q-156 108 -305 129q-9 -86 -12 -196h413v-236h-408q3 -114 23 -265l-230 -84q189 -170 526 -170q38 0 78 2l-219 -296q-221 24 -390 104q-166 -105 -297 -105q-424 0 -591.5 270.5t-214.5 631.5q161 233 377 395t525 208l-2 -286l487 286
q141 -97 410 -190zM655 634l-10 446q-6 114 -21 225q-220 -128 -220 -405q0 -23 2 -47q19 -314 211 -494q38 106 38 275zM1065 577l74 25q-30 219 -30 379t5 256q-60 -30 -97.5 -70t-54 -77.5t-16.5 -106t2 -103.5q7 -158 117 -303zM976 235q-97 78 -161 170
q-73 -49 -108 -115q98 -59 208 -59q38 0 61 4z" />
    <glyph glyph-name="oe" unicode="&#x153;" horiz-adv-x="1361" 
d="M80 801q233 156 387 283q77 -33 155 -118q22 -22 40 -46l267 157v3l1 -1h1l389 -279l-405 -426q41 -49 91 -54t82.5 -5t77 3.5t109.5 5.5l-209 -293q-130 52 -454 181l-155 -198l-428 211q68 141 68 244l-2 233q-3 72 -15 99zM349 836l-3 -425q9 -49 69 -76.5t79.5 -27.5
t26.5 2q88 20 88 111q0 21 -5 47q-34 165 -98.5 249.5t-156.5 119.5zM900 810q-58 0 -58 -158q0 -90 30 -180q0 -3 3 -15l161 170q17 19 17 37t-17 45.5t-36 45.5q-63 55 -100 55z" />
    <glyph glyph-name="Scaron" unicode="&#x160;" horiz-adv-x="1475" 
d="M885 1425q-5 -5 -19 -5h-118q-14 0 -22 5l-211 214q-7 7 -1 12.5t20 5.5h53q13 0 16 -3l206 -116q196 117 206.5 118t13.5 1h51q14 0 21.5 -5.5t-0.5 -12.5zM995 1288q92 -41 188 -41t234 64l39 -41q-149 -279 -361 -279q-58 0 -155 30q-271 81 -391 81q-223 0 -261 -113
q-9 -30 -9 -67.5t28 -77.5q50 -75 158 -75t194 167q94 13 178 13q163 0 287 -50q187 -76 247 -213q25 -56 25 -131.5t-50 -174.5q-85 -171 -349 -322q-48 -28 -110 -28q-64 0 -140 15q-441 79 -653 399q-53 78 -53 172q0 12 1 23q35 423 384 678q66 49 183 48
q192 -2 386 -77zM322 673q38 -152 289 -271q189 -90 353 -90q53 0 104 10q102 18 156 70q57 55 57 116.5t-57.5 119.5t-181.5 77q-12 2 -45 2t-118.5 -28.5t-141.5 -134.5h-18q-180 0 -397 129z" />
    <glyph glyph-name="scaron" unicode="&#x161;" horiz-adv-x="897" 
d="M535 1138q-5 -5 -19 -5h-118q-15 0 -22 5l-211 214q-7 7 -1 12.5t20 5.5h53q13 0 16 -3l206 -116q196 117 206.5 118t13.5 1h51q14 0 21.5 -5.5t-0.5 -12.5zM26 217l174 182q-94 126 -133 285q120 198 355 396q185 -51 424 -96l24 6l-188 -193l164 -411
q-186 -139 -342 -355q-195 115 -478 186zM555 286q101 0 101 72q0 63 -144 264l-240 -247q155 -89 283 -89zM397 604l194 200q-174 47 -233 47t-65.5 -11.5t-6.5 -21.5q0 -57 111 -214z" />
    <glyph glyph-name="Ydieresis" unicode="&#x178;" horiz-adv-x="1346" 
d="M689 -565q-163 0 -346 97q-72 39 -159.5 39t-207.5 -74l-35 47q68 170 148.5 245.5t173.5 75.5q53 0 141 -34q240 -93 349 -93q204 0 236 130q9 35 9 78t-20.5 79.5t-69 172.5t-48.5 192q0 9 1 17l-340 -376q-86 76 -218.5 135t-281.5 111q199 133 249 305q14 47 14 96
q0 131 -105 286t-105 292q0 215 271 370q26 -15 53 -30t53 -30q-156 -108 -156 -196q0 -23 10 -44q51 -105 295 -184v-7q0 -326 -186 -640q160 -102 236 -102q72 0 231 193q6 92 6 227t-18 324q1 9 1 17q0 45 -40.5 73.5t-85.5 62.5l240 264q82 -52 288 -175
q-65 -87 -73 -171t-9 -173l-5 -390v-34q0 -123 27.5 -190t97.5 -94q-85 -116 -177.5 -417t-265.5 -419q-85 -56 -178 -56zM767 1456l70 320q133 -27 241 -89q-144 -136 -311 -231zM482 1426l46 369q127 -31 226 -86q-120 -153 -272 -283z" />
    <glyph glyph-name="Zcaron" unicode="&#x17d;" horiz-adv-x="1214" 
d="M683 1325q-5 -5 -19 -5h-118q-15 0 -22 5l-211 214q-7 7 -1 12.5t20 5.5h53q13 0 16 -3l206 -116q196 117 206.5 118t13.5 1h51q14 0 21.5 -5.5t-0.5 -12.5zM613 1206l253 3q142 0 283 -4l-396 -362q248 -148 334.5 -286.5t84.5 -279.5t-92 -289t-231.5 -259t-319.5 -163
q-93 -27 -182.5 -27t-176.5 23q-116 31 -116 193q0 193 75 334q115 217 477 390q-95 63 -285 127l388 312q-118 33 -270 33q-220 0 -389 -83l152 376q196 -38 411 -38zM375 -238q71 -34 144 -34t147 33q150 67 180 125q42 63 42 161q0 146 -97 256q-44 8 -110.5 8
t-176 -38.5t-171.5 -100.5t-95 -194q-6 -22 -6 -43q0 -104 143 -173z" />
    <glyph glyph-name="zcaron" unicode="&#x17e;" horiz-adv-x="776" 
d="M474 1171q-5 -5 -19 -5h-118q-15 0 -22 5l-211 214q-7 7 -1 12.5t20 5.5h53q13 0 16 -3l206 -116q196 117 206.5 118t13.5 1h51q14 0 21.5 -5.5t-0.5 -12.5zM391 461q-58 51 -181 106l246 262q-41 7 -89 7q-124 0 -291 -51l59 319q119 -46 255 -46q17 0 103 3.5t242 8.5
l-251 -303q157 -125 211.5 -241.5t54.5 -229.5q-4 -247 -206 -466q-148 -161 -308 -161q-60 0 -127.5 25t-67.5 158q0 161 48 280q73 184 302 329zM245 -141q43 -31 84.5 -31t81.5 28q149 107 149 262q0 91 -53 194q-25 6 -67 6t-111.5 -39.5t-108.5 -92t-60 -152.5
q-3 -16 -3 -32q0 -80 88 -143z" />
    <glyph glyph-name="longs" unicode="&#x17f;" horiz-adv-x="492" 
d="M762 1400l-180 -220q-73 42 -177 55q-35 -50 -51 -75q43 -92 43 -277q0 -21 -3 -141t-7 -308q-2 -185 -273 -853q-32 31 -79 41q69 248 82.5 531.5t13.5 471t-4 335.5q-2 82 -81 146q86 91 150.5 173.5t150.5 175.5q137 0 415 -55z" />
    <glyph glyph-name="florin" unicode="&#x192;" horiz-adv-x="1024" 
d="M1090 1235q0 -94 -113 -94q-59 0 -83 61q-8 18 -15.5 42.5t-27.5 46.5t-51 22t-60 -22.5t-52 -71.5q-50 -103 -67 -312l-9 -98h226q22 0 18 -12l-14 -62q-3 -12 -25 -12h-213l-37 -320q-36 -323 -177 -503q-129 -166 -310 -166q-96 0 -159 51q-54 44 -54 94.5t21 80.5
t52 30t49.5 -8.5t32.5 -21.5q23 -22 34.5 -62t33.5 -59t56 -19t53 24t34 77q28 98 52 349l43 453h-152q-17 0 -12 18l14 56q3 12 19 12h141q37 291 172 432q83 87 143 114q96 44 177.5 44t127 -15.5t74.5 -39.5q58 -47 58 -109z" />
    <glyph glyph-name="circumflex" unicode="&#x2c6;" horiz-adv-x="598" 
d="M64 1290q-25 0 -25 11q0 3 4 7l216 214q5 5 19 5h118q14 0 22 -5l211 -214q4 -4 4 -7q0 -11 -23 -11h-53q-13 0 -16 3l-206 116q-196 -117 -206.5 -118t-13.5 -1h-51z" />
    <glyph glyph-name="caron" unicode="&#x2c7;" horiz-adv-x="598" 
d="M608 1527q25 0 25 -11q0 -3 -4 -7l-216 -214q-5 -5 -19 -5h-118q-14 0 -22 5l-211 214q-4 4 -4 7q0 11 23 11h53q13 0 16 -3l206 -116q196 117 206.5 118t13.5 1h51z" />
    <glyph glyph-name="ring" unicode="&#x2da;" horiz-adv-x="570" 
d="M53 1338q154 103 255 186q51 -21 103 -77q112 -121 131 -251q3 -14 3 -42.5t-24 -56.5l-219 -279l-283 139q45 93 45 162l-1 153q-2 48 -10 66zM230 1361l-2 -281q6 -32 46 -50t53 -18t17 1q58 13 58 73q0 14 -3 31q-41 196 -169 244z" />
    <glyph glyph-name="tilde" unicode="&#x2dc;" horiz-adv-x="546" 
d="M622 1511l236 -214q-51 -122 -191 -209q-349 243 -475 243q-27 0 -44 -11q-96 -62 -107 -291l-284 280q108 198 294 198q132 0 296 -108q115 -66 162 -66t65 21q48 56 48 157z" />
    <glyph glyph-name="gravecomb" unicode="&#x300;" 
d="M-115 1680q50 -164 50 -355v-33l-280 351z" />
    <glyph glyph-name="acutecomb" unicode="&#x301;" 
d="M-267 1351v65q0 159 50 323l230 -37z" />
    <glyph glyph-name="uni0302" unicode="&#x302;" 
d="M-516 1290q-25 0 -25 11q0 3 4 7l216 214q5 5 19 5h118q14 0 22 -5l211 -214q4 -4 4 -7q0 -11 -23 -11h-53q-13 0 -16 3l-206 116q-196 -117 -206.5 -118t-13.5 -1h-51z" />
    <glyph glyph-name="tildecomb" unicode="&#x303;" 
d="M80 1511l236 -214q-51 -122 -191 -209q-349 243 -475 243q-27 0 -44 -11q-96 -62 -107 -291l-284 280q108 198 294 198q132 0 296 -108q115 -66 162 -66t65 21q48 56 48 157z" />
    <glyph glyph-name="uni0304" unicode="&#x304;" 
d="M-588 1413h495v-100h-495v100z" />
    <glyph glyph-name="uni0308" unicode="&#x308;" 
d="M-317 1106l70 320q133 -27 241 -89q-144 -136 -311 -231zM-602 1076l46 369q127 -31 226 -86q-120 -153 -272 -283z" />
    <glyph glyph-name="uni030A" unicode="&#x30a;" 
d="M-511 1338q154 103 255 186q51 -21 103 -77q112 -121 131 -251q3 -14 3 -42.5t-24 -56.5l-219 -279l-283 139q45 93 45 162l-1 153q-2 48 -10 66zM-334 1361l-2 -281q6 -32 46 -50t53 -18t17 1q58 13 58 73q0 14 -3 31q-41 196 -169 244z" />
    <glyph glyph-name="uni030C" unicode="&#x30c;" 
d="M26 1527q25 0 25 -11q0 -3 -4 -7l-216 -214q-5 -5 -19 -5h-118q-14 0 -22 5l-211 214q-4 4 -4 7q0 11 23 11h53q13 0 16 -3l206 -116q196 117 206.5 118t13.5 1h51z" />
    <glyph glyph-name="uni0327" unicode="&#x327;" 
d="M-467 0h68l-99 -154q54 15 111 15t109.5 -38.5t52.5 -102.5q0 -91 -89 -131q-61 -28 -142 -28q-160 0 -244 36l20 45q56 -19 116 -19q135 0 135 92q0 36 -24.5 54.5t-56.5 18.5t-57 -13l-30 29z" />
    <glyph glyph-name="uni1E9E" unicode="&#x1e9e;" horiz-adv-x="1370" 
d="M323 31q-140 88 -280 178q28 95 45 198l20 179q6 90 6 223t-17 328q1 9 1 17q0 45 -41 73.5t-85 62.5l239 264q324 -37 552 -37l260 3q147 0 293 -5l-400 -428q251 -175 338 -339t85 -331t-92.5 -342.5t-233.5 -307t-362 -187.5q-109 -27 -209.5 -27t-191.5 28
q-128 41 -155 197l228 182q28 -82 134 -142q118 -49 209.5 -49t161.5 37q152 79 182 148q43 75 43 191q0 170 -115.5 351t-457.5 310l392 369q-119 40 -272 40q-94 0 -175 -16q-7 -80 -7 -164l-6 -390v-34q0 -123 27.5 -190t97.5 -94z" />
    <glyph glyph-name="afii61664" unicode="&#x200c;" 
 />
    <glyph glyph-name="afii301" unicode="&#x200d;" 
 />
    <glyph glyph-name="endash" unicode="&#x2013;" horiz-adv-x="583" 
d="M0 473v156h583v-156h-583z" />
    <glyph glyph-name="emdash" unicode="&#x2014;" horiz-adv-x="1024" 
d="M0 473v156h1024v-156h-1024z" />
    <glyph glyph-name="quoteleft" unicode="&#x2018;" horiz-adv-x="342" 
d="M330 1541q-91 -157 -91 -295q0 -70 23 -147l-245 -158q29 318 260 609z" />
    <glyph glyph-name="quoteright" unicode="&#x2019;" horiz-adv-x="344" 
d="M16 970q93 160 93 294q0 71 -25 148l246 158q-18 -185 -90.5 -334t-172.5 -275z" />
    <glyph glyph-name="quotesinglbase" unicode="&#x201a;" horiz-adv-x="344" 
d="M16 -264q93 160 93 295q0 71 -25 148l246 157q-18 -185 -90.5 -333.5t-172.5 -275.5z" />
    <glyph glyph-name="quotedblleft" unicode="&#x201c;" horiz-adv-x="582" 
d="M331 1529q-92 -156 -92 -296q0 -70 23 -147l-245 -159q18 187 89 335.5t171 274.5zM564 1484q-92 -161 -92 -295q0 -71 25 -148l-246 -157q18 185 90.5 333.5t170.5 276.5z" />
    <glyph glyph-name="quotedblright" unicode="&#x201d;" horiz-adv-x="582" 
d="M250 900q92 156 92 295q0 70 -23 147l245 159q-31 -322 -260 -610zM17 945q92 161 92 294q0 71 -25 148l246 158q-18 -185 -90.5 -334t-170.5 -276z" />
    <glyph glyph-name="quotedblbase" unicode="&#x201e;" horiz-adv-x="615" 
d="M250 -338q92 156 92 296q0 70 -23 147l245 159q-18 -187 -89 -335.5t-171 -274.5zM17 -293q92 161 92 295q0 71 -25 148l246 157q-18 -185 -90.5 -333.5t-170.5 -276.5z" />
    <glyph glyph-name="dagger" unicode="&#x2020;" horiz-adv-x="1024" 
d="M549 -258q0 -18 -14 -18h-43q-15 0 -15 36t-7 112.5t-18 165.5t-24.5 182t-27.5 174q-29 174 -48 224q9 10 28 31t39 53q50 82 50 181q-40 0 -113.5 -35.5t-113.5 -51.5t-71 -16t-55 10t-40 26q-35 35 -35 76.5t11 64.5t29 39q36 32 78.5 32t82 -14t79.5 -30
q105 -44 148 -44q0 82 -32.5 177.5t-47 141.5t-14.5 74.5t9.5 53.5t27.5 46q41 48 92.5 48t78.5 -13.5t43 -34.5q31 -39 31 -83.5t-16 -90.5t-35 -99q-51 -142 -51 -220q42 0 114 30t111.5 44t86 14t81.5 -34.5t35 -74.5t-8.5 -62t-25.5 -39q-38 -38 -103 -38
q-38 0 -110 35.5t-111 51.5t-70 16q0 -97 49 -179q20 -33 39.5 -53.5t28.5 -32.5q-43 -98 -98 -574q-25 -209 -25 -302z" />
    <glyph glyph-name="daggerdbl" unicode="&#x2021;" horiz-adv-x="1024" 
d="M471 322q0 137 -98 294q13 28 30 55t32 59q36 75 36 153q-60 0 -136.5 -35.5t-112.5 -51.5t-59 -16t-44.5 7.5t-38.5 22.5q-39 35 -39 77.5t11.5 65.5t29.5 39q40 36 74.5 36t68.5 -14t75 -30q106 -44 171 -44q0 69 -33 167t-48 145t-15 75.5t10 55.5t29 49
q41 49 90.5 49t76.5 -13.5t44 -35.5q32 -41 32 -87t-16 -93t-35 -100q-51 -144 -51 -212q60 0 132.5 30t108.5 44t80 14t75.5 -36t31.5 -74t-7.5 -60t-22.5 -40q-33 -38 -93 -38q-24 0 -58.5 16t-75.5 36q-106 51 -171 51q0 -80 24 -131.5t41.5 -79t32.5 -56.5
q-61 -84 -87 -200q-11 -46 -11 -94q59 0 131 35t107.5 51t65 16t52 -10t38.5 -28q34 -37 34 -75.5t-11 -61.5t-29 -39q-38 -34 -78.5 -34t-75 14t-73.5 31q-101 45 -161 45q0 -119 48 -244q18 -47 33 -85t15 -66.5t-10 -53.5t-29 -45q-44 -48 -92.5 -48t-74 13.5t-42.5 34.5
q-34 40 -34 83.5t15.5 81.5t34.5 85q50 125 52 244q-63 0 -138 -31t-109.5 -45t-59 -14t-47.5 9.5t-40 26.5q-36 36 -36 74.5t12 60.5t30 39q39 38 71 38t67.5 -16t76.5 -35q112 -51 173 -51z" />
    <glyph glyph-name="bullet" unicode="&#x2022;" horiz-adv-x="696" 
d="M346 467q-53 0 -103.5 18.5t-90.5 52.5q-89 77 -89 199q0 129 89 209q82 74 198 74t196 -72q87 -78 87 -211q0 -123 -89 -199q-82 -71 -198 -71z" />
    <glyph glyph-name="ellipsis" unicode="&#x2026;" horiz-adv-x="1362" 
d="M17 241l210 209l209 -209l-209 -210zM471 241l210 209l209 -209l-209 -210zM925 241l210 209l209 -209l-209 -210z" />
    <glyph glyph-name="perthousand" unicode="&#x2030;" horiz-adv-x="2292" 
d="M309 1333q28 26 62 26t75 -35q251 -221 251 -433q0 -228 -256 -461q-43 -38 -82 -38t-76 38q-220 226 -220 452t246 451zM223 1129q-44 -29 -44 -100.5t75 -207.5q100 -182 183 -182q24 0 47 15q46 30 46 102t-73 206q-101 183 -186 183q-24 0 -48 -16zM362 -70
q-20 0 -20 21q0 5 2 10l749 1454q4 10 17 10h71q13 0 19 -9.5t0 -18.5l-746 -1456q-4 -11 -16 -11h-76zM1827 942q28 26 62 26t75 -35q251 -221 251 -433q0 -228 -256 -461q-43 -37 -82 -37t-76 37q-220 226 -220 452t246 451zM1741 738q-44 -29 -44 -100.5t75 -207.5
q100 -182 183 -182q24 0 47 15q46 30 46 102t-73 206q-101 183 -186 183q-24 0 -48 -16zM1118 942q28 26 62 26t75 -35q251 -221 251 -433q0 -228 -256 -461q-42 -37 -82 -37t-76 37q-220 226 -220 452t246 451zM1032 738q-44 -29 -44 -100.5t75 -207.5q100 -182 183 -182
q24 0 47 15q46 30 46 102t-73 206q-101 183 -186 183q-24 0 -48 -16z" />
    <glyph glyph-name="guilsinglleft" unicode="&#x2039;" horiz-adv-x="743" 
d="M8 575l504 488l166 -105l-301 -378l301 -387l-166 -105z" />
    <glyph glyph-name="guilsinglright" unicode="&#x203a;" horiz-adv-x="743" 
d="M242 88l-166 105l301 387l-301 378l166 105l503 -488z" />
    <glyph glyph-name="Euro" unicode="&#x20ac;" horiz-adv-x="1032" 
d="M817 587l-20 -55q-9 -25 -45 -25h-357q23 -293 158 -385q47 -32 105.5 -32t98.5 21t67 56q48 61 77 169q17 43 36 43q9 0 13 -2l-3 2q40 -8 46 -22.5t6 -26.5q-18 -207 -18 -260.5t-9.5 -61.5t-39.5 -8t-37.5 24.5t-22.5 55.5q-4 -6 -28.5 -27.5t-53.5 -38.5
q-72 -45 -163.5 -45t-171.5 45t-137 121q-101 137 -136 372h-116q-35 0 -35 23v12q0 7 4 15l14 39q9 25 37 25h86q-2 21 -2 49v71h-96q-37 0 -37 21q0 10 4 18h-4q15 45 26 58.5t29 13.5h92q34 222 146 372q130 177 315 177q121 0 219 -109q15 45 23 56.5t36.5 11.5t35 -9
t6.5 -33t2 -62q4 -71 9 -140.5t7 -82.5t2 -23q0 -18 -25.5 -28.5t-38 -10.5t-16.5 7t-16 40.5t-30.5 85t-46.5 92.5q-62 91 -170 91q-167 0 -231 -270q-19 -80 -24 -165h467q35 0 35 -30q0 -5 -2 -10l-20 -46q-5 -16 -15 -20.5t-30 -4.5h-440v-51l5 -69h393q37 0 37 -34z
" />
    <glyph glyph-name="uni20B0" unicode="&#x20b0;" horiz-adv-x="837" 
d="M530 1116q-45 -7 -45 -57v-8q4 -86 37 -173t75 -181l19 -38l13 68q8 88 8 135v43q0 142 -55 193q-21 18 -52 18zM350 -258l-49 -5q-73 0 -128 33q-99 59 -99 119q0 37 32 72q106 118 106 11v-10q0 -52 34.5 -90t93.5 -38q48 0 96 13q215 57 215 212v13q-9 155 -59 284
q-87 -124 -213 -198q-111 -66 -205 -66q-47 0 -85 23.5t-38 72.5q0 74 45 201q69 150 90 236q0 2 -3 2t-32 -23.5t-65 -64.5l-27 36q-10 12 -21 29.5t-16 22.5q190 147 277 147q68 0 68 -71.5t-62 -215.5q-68 -198 -68 -226.5t8.5 -30t18.5 -1.5q55 0 131 63.5t146 179.5
q-211 330 -211 503q0 26 6 51q20 84 65 134t111 50h20q131 0 194 -88q50 -71 50 -196v-15q0 -113 -27 -198.5t-37 -121.5t-22 -65q117 -227 117 -391q0 -173 -131 -277q-127 -99 -326 -116z" />
    <glyph glyph-name="uni2114" unicode="&#x2114;" horiz-adv-x="1108" 
d="M905 137q-125 -147 -253 -147t-201 100q-132 -90 -202.5 -90t-115.5 44t-45 114q0 71 17.5 124.5t17.5 58.5t2 9v-2q15 52 22 70v-2q5 16 9 25.5t5 20.5t5 25q-213 60 -213 199q0 102 98 178q121 80 318 80q127 0 245 -29q7 -2 25 -6t38.5 -11t32 -12t62.5 -23.5
t66.5 -18.5t28 10t16.5 20q10 64 53 64q47 0 86 -47q10 -12 10 -23q0 -77 -170 -116q-37 -9 -77 -9q-77 0 -209 23q-208 35 -302 35q-225 0 -225 -109q0 -47 45 -74q4 -2 13.5 -4t20.5 -6t26.5 -10t44.5 -16q13 40 65 170l166 -9l-26 -79q-17 -50 -39 -117q23 -3 186 -19
l63 195l179 -18l-62 -191q234 -31 234 -209q0 -83 -60 -168zM700 430q-106 -266 -106 -297t35 -31q78 0 137 97q59 75 59 133q0 80 -125 98zM334 457q-94 -296 -94 -327.5t26 -31.5q19 0 51 17q111 53 205 325q-80 0 -188 17zM539 487q-9 -22 -12 -31.5t-7 -15.5h47z" />
    <glyph glyph-name="afii61352" unicode="&#x2116;" horiz-adv-x="1679" 
d="M1056 1006.5q94 126.5 227 126.5t227.5 -126.5t94.5 -306t-94.5 -306t-227.5 -126.5t-227 126.5t-94 306t94 306zM880 7h-47l-406 1080v-869q0 -88 -56.5 -149.5t-141.5 -61.5t-134 70.5t-49 167t94.5 96.5t94.5 -103q0 -39 -25 -70q-41 -52 -41 -80.5t63 -28.5t105 46.5
t42 112.5v994q-60 160 -85 186.5t-181 26.5v52h379q78 0 101 -65l240 -694v548q0 87 55.5 149t141 62t135 -71t49.5 -167t-94.5 -96t-94.5 104q0 37 23 68q41 54 41 82t-62.5 28t-104.5 -46.5t-42 -112.5v-1259zM962 147v68h643v-68h-643zM962 7v68h643v-68h-643zM1355 975
q-17 114 -67.5 114t-64 -114t-13.5 -275t13.5 -274.5t64 -113.5t67.5 113.5t17 274.5t-17 275z" />
    <glyph glyph-name="trademark" unicode="&#x2122;" horiz-adv-x="1587" 
d="M666 904q117 115 117 162.5t-41 141.5q-68 156 -68 179t6 37q14 31 65.5 57.5t156.5 66.5q15 -36 22 -54q-67 -22 -74 -56q-1 -7 -1 -26t19 -59l191 195q44 -30 75 -57.5t75 -49.5q72 78 99 107l120 -66q60 -33 125 -57q-80 -56 -85 -191l-5 -191v-11q0 -83 57 -101
l-79 -154q-72 27 -99.5 84.5t-27.5 158.5v14l1 129q0 73 59 152q-101 75 -149 81q-19 -29 -19 -69t-2 -93l-6 -191v-11q0 -93 47 -109l-116 -146q-38 50 -124 124q15 18 29.5 56.5t14.5 76.5l18 317q-43 34 -58 34t-29 -6.5t-86 -77.5q44 -75 44 -130.5t-97 -185.5
q46 -34 130 -54l-83 -154q-139 72 -223 117v-33q-162 -77 -261.5 -77t-159.5 36q-149 88 -218 317q93 131 239 270q-24 20 -51 20q-37 0 -164 -53l120 188q144 -16 268 -16t237 16l-76 -184q-55 24 -115 37l4 -420q-87 -11 -166 -67q64 -54 153 -54t193 57q-1 -13 -2 -27z
M316 1353q-96 -92 -96 -207q0 -101 68 -182q35 36 37 112q4 161 4 201.5t-13 75.5z" />
    <glyph glyph-name="uni2133" unicode="&#x2133;" horiz-adv-x="1597" 
d="M696 187q0 132 60 374q18 90 46 176q-28 -65 -55.5 -132.5t-62.5 -145.5q-212 -482 -422 -482q-83 0 -160 71q-86 81 -86 199q0 64 35 98t81 34q105 0 105 -100q0 -35 -21 -72q-26 -46 -26 -68t26 -37.5t46 -15.5q133 0 335 434q7 12 30.5 68.5t56.5 134.5t72 168.5
t74 172.5q72 167 110 232q17 43 52 82q68 78 108 78q16 0 29 -17.5t13 -36t-22 -46.5q-73 -150 -183 -680q-11 -69 -23 -136.5t-20.5 -126.5t-17.5 -108t-10 -76q23 47 46 121q73 195 121.5 330t82.5 211q133 311 273 510q3 16 25.5 36t42.5 20q44 0 44 -46q0 -19 -8 -38
q-25 -59 -91.5 -345t-85.5 -378q-36 -173 -36 -320q0 -136 14.5 -187t26 -51t28.5 18q22 22 83 130v-4q2 20 47 100v-2q10 33 38 33q52 0 52 -52q0 -27 -19 -55q-56 -138 -78 -170q-71 -100 -160 -100q-200 0 -200 295q0 225 107 577q-105 -240 -228 -590
q-87 -247 -164 -266q-16 -4 -20 -4q-111 0 -111 185z" />
    <glyph glyph-name="uni338F" unicode="&#x338f;" horiz-adv-x="2101" 
d="M1735 850q14 14 22 17h-2q90 85 172 85q120 0 120 -131q0 -90 -91 -90q-66 0 -92 64h2q-14 12 -21 27q-3 -1 -10.5 -8t-30.5 -23q35 -46 47.5 -86.5t12.5 -107.5t-31 -126t-86 -99q-114 -83 -300 -83q-116 0 -155.5 -17.5t-39.5 -54.5q0 -61 122 -61h18q177 0 248 6
q162 0 233 -56.5t71 -185.5q0 -308 -487 -308q-390 0 -390 204q0 59 35 102t125 76q-76 24 -99 66q-18 31 -18 100t36 119.5t128 76.5q-78 46 -107.5 108t-29.5 137.5t28.5 134.5t77.5 100q100 84 245 84t247 -70zM1631.5 429.5q40.5 52.5 40.5 170t-40.5 169.5t-132.5 52
t-134.5 -54.5t-42.5 -167t40 -167.5t134.5 -55t135 52.5zM1377 -18q-138 -39 -138 -146q0 -124 231 -124q322 0 322 157q0 58 -43 85.5t-139 27.5h-233zM102 1347l-15 -1h-40v96l342 22v-944q63 59 102 99t66 64t51 49q58 59 58 80q0 5 -17 12t-59 7h-74v96h488l-3 -96
q-144 0 -292 -151l-87 -83q202 -280 277 -396q58 -85 182 -92v-103h-487v103l63 2q53 3 54 8.5t4 11.5q-4 8 -12.5 17t-8.5 19q-55 79 -103.5 151.5t-105.5 152.5l-24 -27q-19 -18 -35 -35.5t-37 -33.5v-201q0 -35 10.5 -48.5t40.5 -14.5h37l53 -2v-103h-473v103l95 2
q28 1 39 14.5t11 48.5v1103q0 42 -19 56t-71 14h-10z" />
    <glyph glyph-name="uniA75B" unicode="&#xa75b;" horiz-adv-x="727" 
d="M70 759l338 333q236 -125 240 -366q-2 -135 -108 -260q-17 -25 -31 -41q-17 -26 -17 -44t16 -28q13 -18 164 -94q-172 -190 -222 -244q-174 132 -294 225q67 59 154 150q130 125 130 210q0 16 -4 30q-28 93 -78 128q-40 35 -79 35q-68 0 -123 -93q-21 15 -42.5 29.5
t-43.5 29.5z" />
    <glyph glyph-name="uniF520" unicode="&#xf520;" horiz-adv-x="1071" 
d="M729 874q84 80 172 80q121 0 121 -127q0 -90 -94 -90q-62 0 -92 64h2q-5 5 -19 26q-12 -4 -19 -11t-11.5 -8t-8.5 -3v-2q0 -4 -4 -4q35 -45 46.5 -87t11.5 -109.5t-36 -132.5q-99 -177 -376 -177q-96 0 -129 -8q-66 -17 -66 -64q0 -59 121 -59h19l247 4q162 0 233 -55.5
t71 -184.5q0 -307 -486 -307q-389 0 -389 203q0 59 33 102t123 76q-105 36 -114 110q-3 25 -3 75.5t35 101.5t129 75q-137 84 -137 250q0 147 108.5 230.5t255.5 83.5q72 0 126 -14.5t108 -55.5q14 14 24 18h-2zM473 827q-92 0 -135 -54t-43 -167.5t41 -169t135 -55.5
t135 53t41 170t-41 170t-133 53zM352 -12q-139 -39 -139 -146q0 -123 231 -123q322 0 322 154q0 59 -43 87t-141 28h-230z" />
    <glyph glyph-name="uniF522" unicode="&#xf522;" horiz-adv-x="2011" 
d="M582 1395l94 4l51 2q68 6 145 6q40 0 40 -35q0 -16 -8.5 -33t-37.5 -71t-72.5 -137.5t-99 -189t-113 -215.5t-112.5 -217t-99 -192t-74 -141.5t-34 -66.5h438q41 39 110 149.5t75.5 125.5t16 15t24.5 -8l18 -14q12 -12 12 -35q-6 -16 -20 -63t-29.5 -98.5t-29 -100.5
t-18.5 -67.5t-16.5 -31t-18.5 -12.5q-26 0 -42 8q-80 20 -417 20h-288q-15 0 -30.5 4.5t-15.5 24.5q0 41 12 58.5t45.5 80t80 150t102 193.5t110.5 213.5t106.5 209t92.5 180.5q85 165 92 181h-338q-22 0 -34.5 -17.5t-36 -54t-50.5 -80.5q-57 -91 -82 -149
q-9 -19 -21.5 -19t-21 7.5t-16.5 11.5q-13 13 -13 22t2 14l86 345q13 39 35 39q13 0 35.5 -4.5t66 -7t96 -3.5t106.5 -1h96zM1062 668v143q0 61 7 78v227h-77q-42 0 -42 39q0 21 10.5 29t25.5 17t40.5 34t52.5 55q60 69 74 98q21 44 46.5 44t31.5 -13.5t6 -32.5l-8 -144h201
q32 0 32 -25q0 -10 -2 -13l-16 -55q-6 -33 -35 -33h-184q-4 -54 -4 -106v-273q0 -104 43 -121q12 -4 30 -4q62 0 82 17q13 6 22 6t27 -14l9 -19q2 -5 2 -13.5t-9 -26.5q-88 -73 -190 -73q-62 0 -121 53q-54 51 -54 126zM1482 497q-28 0 -28 38v27q0 22 6.5 30t30.5 8h61
q13 0 13 12q2 40 2 89v274q0 74 -24 93q-9 7 -21 14l-30 20q-22 8 -22 30v9q0 21 20.5 33t46 28.5t51.5 31.5q62 36 84 36t28 -12.5t10 -26.5v-70q95 119 177 119q52 0 77 -29.5t25 -70.5t-30 -70t-56.5 -29t-48.5 14.5t-43 14.5q-48 0 -79 -61q-15 -33 -15 -45v-357
q0 -47 25 -47h73q20 0 25 -10t5 -28v-27q0 -38 -26 -38h-23q-47 7 -144 7l-155 -7h-15zM992 412h980v-162h-980v162z" />
    <glyph glyph-name="uniFB00" unicode="&#xfb00;" horiz-adv-x="1030" 
d="M1054 1202q-75 44 -178 57q-17 -27 -52 -77q16 -33 30 -101h162v-252h-147q0 -94 -4 -190.5t-7 -180.5q-5 -192 -273 -853q-40 39 -83 49q62 221 79.5 504.5t17.5 453.5v217h-189q0 -94 -4 -190.5t-6 -180.5q-3 -188 -274 -853q-37 37 -82 49q68 246 82 531t14 473
t-4 333q-2 81 -81 145q86 91 157.5 180t157.5 181q124 -15 342 -58l-180 -220q-37 22 -50 27.5t-63 12.5q-18 -27 -53 -77q19 -41 29 -101l205 3q0 69 -38 110q179 211 265 303q94 -11 199.5 -32t207.5 -41q-45 -57 -90 -112z" />
    <glyph glyph-name="uniFB01" unicode="&#xfb01;" horiz-adv-x="933" 
d="M918 1387q-90 -112 -180 -220q-62 22 -144 42l132 218q117 -26 192 -40zM550 1223q-86 29 -136 36q-18 -27 -53 -77q19 -41 29 -101h249v-1l223 -105q-11 -41 -25.5 -80t-14.5 -80l-13 -406v-9q0 -47 30 -78t68 -47l-200 -244l-211 171q58 69 58 138l7 454q0 15 -9 35
h-147q0 -94 -4 -190.5t-5 -180.5q-4 -188 -275 -853q-37 37 -82 49q68 246 82 531t14 473t-4 333q-2 81 -81 145q86 91 157.5 180t157.5 181q103 -12 317 -61z" />
    <glyph glyph-name="uniFB02" unicode="&#xfb02;" horiz-adv-x="1005" 
d="M365 1497q60 -6 329 -57l177 95q-27 -120 -31.5 -249t-4.5 -262l-4 -587q0 -75 14 -85t146 -93q-112 -124 -222 -244q-174 132 -294 225q109 96 111 204l5 605q0 105 -5 157q-75 41 -172 53q-18 -27 -53 -77q19 -41 29 -101h129v-252h-114q0 -94 -4 -190.5t-5 -180.5
q-4 -188 -275 -853q-37 37 -82 49q68 246 82 531t14 473t-4 333q-2 81 -81 145q86 91 157.5 180t157.5 181z" />
    <glyph glyph-name="uniFB03" unicode="&#xfb03;" horiz-adv-x="1443" 
d="M1447 1389q-90 -112 -180 -220q-38 21 -102.5 37.5t-71.5 17.5l154 205q123 -25 200 -40zM1037 1238q-67 16 -101 21q-18 -27 -53 -77q19 -41 29 -101h249v-1l223 -105q-11 -41 -25.5 -80t-14.5 -80l-13 -406v-9q0 -47 30 -78t68 -47l-200 -244l-211 171q58 69 58 138
l7 454q0 15 -9 35h-147q0 -94 -4 -190.5t-5 -180.5q-4 -188 -275 -853q-37 37 -82 49q68 246 82 533t14 436t-1 206h-260q0 -94 -3.5 -190.5t-5.5 -180.5q-5 -190 -275 -853q-37 37 -82 49q69 246 82.5 529.5t13.5 471.5t-4 336q-2 81 -81 145q86 91 157.5 180t157.5 181
q194 -23 386 -64l-196 -217q-72 43 -135 43h-6q-18 -27 -53 -77q19 -41 29 -101l255 -3v7q0 49 -39 98q204 222 290 314q92 -11 189.5 -32t108.5 -23z" />
    <glyph glyph-name="uniFB04" unicode="&#xfb04;" horiz-adv-x="1466" 
d="M712 1439l-180 -220q-37 22 -50 27.5t-63 12.5q-18 -27 -53 -77q19 -41 29 -101h171q-20 28 -52 55q85 91 128 145t58 72l-1 2q59 70 126 142h2q21 -3 40.5 -5.5t34.5 -5.5l27 -4h3l222 -42l177 95q-27 -120 -31.5 -249t-4.5 -262l-4 -587q0 -75 14 -85t146 -93
q-112 -124 -222 -244q-174 132 -294 225q109 96 111 204l5 605q0 105 -5 157q-75 40 -170 53q-17 -27 -52 -77q16 -33 30 -101h148v-252h-133q0 -94 -4 -190.5t-7 -180.5q-5 -192 -273 -853q-40 39 -83 49q62 221 79.5 504.5t17.5 453.5v217h-189q0 -94 -4 -190.5t-6 -180.5
q-3 -188 -274 -853q-37 37 -82 49q68 246 82 531t14 473t-4 333q-2 81 -81 145q86 91 157.5 180t157.5 181q124 -15 342 -58z" />
    <glyph glyph-name="uniFB05" unicode="&#xfb05;" horiz-adv-x="992" 
d="M441 240q111 96 111 204l4 415h-86v78l142 208q-143 83 -202 90q-35 -50 -51 -75q43 -92 43 -277q0 -21 -3 -141t-7 -308q-2 -185 -273 -853q-32 31 -79 41q69 248 82.5 531.5t13.5 471t-4 335.5q-2 82 -81 146q86 91 150.5 173.5t150.5 175.5q84 0 196.5 -34t210.5 -60
l55 81l51 -7q-24 -109 -41.5 -180t-21.5 -175h178v-216h-179l-2 -427v-42.5t13 -43t145 -92.5q-179 -198 -221 -244q-75 56 -148 112.5t-147 112.5z" />
    <glyph glyph-name="longs_c_h" horiz-adv-x="1787" 
d="M1390 292l-221 -243l-248 188l-167 -175q-300 212 -300 489v13q2 135 85 268.5t271 294.5q44 -30 89 -59l90 -58l1 72q0 65 -48 131t-116 106l-125 -155q-37 22 -135.5 43.5t-149.5 27.5q-35 -50 -51 -75q44 -92 44 -274q0 -23 -3.5 -143.5t-6.5 -308.5
q-5 -188 -274 -853q-31 31 -79 41q69 248 83 533t14 472.5t-4 332.5q-3 82 -82 146q87 91 151 173.5t151 175.5q122 0 231 -18t208.5 -33t174 -15t125.5 5q148 12 321 125q65 -48 96 -72q-154 -67 -217.5 -161.5t-63.5 -226.5v-118l223 169q268 -253 268 -571
q0 -375 -309 -848l-147 46q224 249 224 557q0 323 -261 547l-1 -370q-1 -75 46.5 -113.5t112.5 -65.5zM982 440q3 25 3 37l2 232q-53 37 -105 77q-94 74 -124.5 74t-48.5 -19q-58 -65 -58 -145q0 -140 151 -295q39 -41 84.5 -41t95.5 80z" />
    <glyph glyph-name="longs_s" horiz-adv-x="1278" 
d="M889 1366l-180 -220q-200 76 -304 89q-35 -50 -51 -75q43 -92 43 -277q0 -21 -3 -141t-7 -308q-2 -185 -273 -853q-32 31 -79 41q69 248 82.5 531.5t13.5 471t-4 335.5q-2 82 -81 146q86 91 150.5 173.5t150.5 175.5q100 0 207 -17.5t335 -71.5zM408 217l174 182
q-94 126 -133 285q120 198 355 396q185 -51 424 -96l24 6l-188 -193l164 -411q-186 -139 -342 -355q-195 115 -478 186zM937 286q101 0 101 72q0 63 -144 264l-240 -247q155 -89 283 -89zM779 604l194 200q-174 47 -233 47t-65.5 -11.5t-6.5 -21.5q0 -57 111 -214z" />
    <glyph glyph-name="t_z" horiz-adv-x="1019" 
d="M376 1080q113 -10 223 -10t257 14l70 -79l-187 -288q183 -177 183 -391q0 -98 -38 -204q-122 -337 -522 -601l-5 180q190 76 264.5 205.5t89.5 220.5q3 18 3 35q0 178 -278 312l209 396l-263 10l-2 -426q0 -75 13.5 -85t146.5 -94l-223 -244q-73 56 -147 112.5
t-146 112.5q109 96 111 204l4 415h-87v79q136 195 344 505l51 -8q-23 -109 -45 -188t-26 -183z" />
    <glyph glyph-name="f_t" horiz-adv-x="1037" 
d="M485 256q111 98 111 204l4 415h-193q0 -93 -3.5 -213t-5.5 -204q-4 -188 -274 -853q-38 37 -83 49q69 246 83 531t14 473t-4 333q-3 81 -82 145q87 91 158 180t157 181q93 -11 186.5 -31t195.5 -40l-180 -220q-74 43 -153 53q-17 -27 -52 -77q15 -32 25 -86h222l246 363
l52 -8q-24 -109 -41.5 -179.5t-21.5 -175.5h178v-216h-179l-3 -426v-40.5t13.5 -45t145.5 -93.5l-221 -244q-75 56 -148 112.5t-147 112.5z" />
    <glyph glyph-name="longs_longs" horiz-adv-x="984" 
d="M356 1455q121 0 396 -51q30 35 47 51q140 0 415 -55l-179 -220q-75 42 -178 55l-52 -75q44 -93 44 -281q0 -19 -2.5 -138t-6.5 -307q-7 -192 -275 -853q-31 31 -79 41q69 248 83.5 534t14.5 474t-4 330q-3 81 -81 146q48 54 75 84q-73 35 -160 45q-35 -50 -52 -75
q44 -93 44 -278q0 -21 -3 -140.5t-7 -307.5q-2 -187 -274 -853q-31 31 -78 41q68 248 82 533t14 472.5t-4 332.5q-2 82 -81 146q86 91 150.5 173.5t150.5 175.5z" />
    <glyph glyph-name="longs_i" horiz-adv-x="904" 
d="M471 890l151 190l224 -105q-11 -41 -25.5 -80t-14.5 -80l-14 -406v-6q0 -49 30 -80.5t69 -47.5l-200 -244l-211 171q57 69 57 138l8 454q0 48 -74 96zM545 1199q-87 30 -136 36q-35 -50 -52 -75q44 -93 44 -278q0 -21 -3 -140.5t-7 -307.5q-2 -187 -274 -853
q-31 31 -78 41q68 248 82 533t14 472.5t-4 332.5q-2 82 -81 146q86 91 151 182.5t151 185.5q100 -2 262 -52q38 -12 40 -12zM699 1397q117 -33 179 -45q-45 -56 -97.5 -106.5t-97.5 -104.5q-30 18 -96 42z" />
    <glyph glyph-name="c_k" horiz-adv-x="1191" 
d="M959 259l-222 -244l-245 187l-166 -173q-300 212 -300 494v7q3 135 86 268.5t270 293.5q73 -50 177 -113v70q0 65 -5 155t-44 152l329 179q-23 -100 -30 -234l160 160l195 -246l-237 -280h198l-113 -216h-210l-2 -282q0 -75 13 -93t146 -85zM550 399q2 15 5 45l1 233
q-52 37 -103 76t-86 56t-51.5 17t-34.5 -20q-58 -63 -58 -143q0 -140 152 -296q38 -39 82 -39t93 71zM805 1180q-1 -39 -1 -78v-78l-2 -89h50l112 131q-18 131 -103 161z" />
    <glyph glyph-name="c_h" horiz-adv-x="1350" 
d="M954 259l-222 -244l-247 189l-168 -175q-300 213 -300 495v6q3 135 86 268.5t271 293.5q86 -60 180 -116v73q1 123 -107 220q16 29 43 73q44 -5 117 -5q148 0 377 148q31 -24 96 -71q-154 -68 -217.5 -162.5t-63.5 -227.5l-2 -117l224 169q268 -253 268 -571
q0 -376 -309 -848l-148 47q225 247 225 555q0 323 -260 548l-2 -370q0 -75 47 -113.5t112 -64.5zM546 406q3 25 3 38l2 231q-54 37 -105 76.5t-87 57t-52.5 17.5t-34.5 -20q-58 -63 -58 -143q0 -140 152 -296q39 -41 84.5 -41t95.5 80z" />
    <glyph glyph-name="t_t" horiz-adv-x="1101" 
d="M641 875l-249 5l-2 -426q0 -74 -4 -74q-3 0 128 -81q-57 -63 -93.5 -135.5t-93.5 -132.5q-73 56 -147 112.5t-146 112.5q109 96 111 204l4 415h-87v79q136 195 344 505l51 -8q-23 -109 -40.5 -179.5t-21.5 -175.5h257l247 363l51 -8q-24 -109 -41.5 -179.5t-21.5 -175.5
h178v-216h-180l-3 -426l-1 -76q0 -2 131 -83q-56 -63 -96.5 -133.5t-95.5 -130.5q-74 56 -147.5 112.5t-146.5 112.5q68 59 89 109t22 95z" />
    <glyph glyph-name="longs_longs_t" horiz-adv-x="1458" 
d="M356 1455q121 0 396 -51q30 35 47 51h3q84 0 196.5 -34t210.5 -60l55 81l51 -7q-24 -109 -41.5 -180t-21.5 -175h178v-216h-179l-2 -427v-42.5t13 -43t145 -92.5q-179 -198 -221 -244q-75 56 -148 112.5t-147 112.5q111 96 111 204l4 415h-86v78l142 208q-130 75 -189 88
q-7 0 -13 1q-25 -34 -40 -57l-3 2q-6 -9 -12 -19q44 -93 44 -281q0 -19 -2.5 -138t-6.5 -307q-7 -192 -275 -853q-31 31 -79 41q69 248 83.5 534t14.5 474t-4 330q-3 81 -81 146q48 54 75 84q-73 35 -160 45q-35 -50 -52 -75q44 -93 44 -278q0 -21 -3 -140.5t-7 -307.5
q-2 -187 -274 -853q-31 31 -78 41q68 248 82 533t14 472.5t-4 332.5q-2 82 -81 146q86 91 150.5 173.5t150.5 175.5zM1209 1291q-20 26 -37.5 26t-31.5 -12q32 -9 69 -14z" />
    <glyph glyph-name="f_f_t" horiz-adv-x="1513" 
d="M712 1439l-180 -220q-37 22 -50 27.5t-63 12.5q-18 -27 -53 -77q19 -41 29 -101h171q-20 28 -52 55q85 91 156 180t157 181q94 -11 199.5 -32t207.5 -41q-45 -57 -154 -222q-101 44 -204 57q-17 -27 -52 -77q16 -33 30 -101l200 -1q76 109 257 379l51 -8
q-23 -109 -40.5 -179.5t-21.5 -191.5h176v-251h-179l-2 -375q0 -75 13.5 -85t146.5 -94l-223 -244q-73 56 -147 112.5t-146 112.5q109 96 111 204l3 369h-184q0 -94 -4 -190.5t-7 -180.5q-5 -192 -273 -853q-40 39 -83 49q62 221 79.5 504.5t17.5 453.5v217h-189
q0 -94 -4 -190.5t-6 -180.5q-3 -188 -274 -853q-37 37 -82 49q68 246 82 531t14 473t-4 333q-2 81 -81 145q86 91 157.5 180t157.5 181q124 -15 342 -58z" />
    <glyph glyph-name="l_l" horiz-adv-x="1071" 
d="M1037 259q-172 -190 -222 -244l-148 112q-111 92 -135.5 92t-105.5 -83q-55 -61 -111 -121q-74 56 -147.5 112.5t-146.5 112.5q68 59 89 109t22 95l5 605q0 65 -5.5 155t-44.5 152l330 179q-27 -120 -31.5 -249t-4.5 -262l-4 -587q0 -75 14 -85q102 -77 135 -77
q22 0 84 74q21 50 22 95l5 605q0 65 -5.5 155t-44.5 152l330 179q-27 -120 -31.5 -249t-4.5 -262l-4 -587q0 -75 14 -85t146 -93z" />
    <glyph glyph-name="m_uni0304" horiz-adv-x="1350" 
d="M410 931l119 149l256 -189l151 189l319 -231l-30 -118l-13 -322v-9q0 -47 30 -78t68 -47l-200 -244q-74 58 -113.5 103t-39.5 185v21l7 370q0 40 -107 131l-41 -71l-15 -361v-6q0 -49 30 -80.5t69 -47.5l-200 -244l-213 171q57 67 59 138l6 370q0 44 -117 139l-59 -70
l-9 -370q-1 -53 29.5 -85.5t69.5 -48.5l-200 -244l-211 171q57 69 57 138l8 454q0 48 -74 96l151 190l213 -148v-1zM49 1181v156h1173v-156h-1173z" />
    <glyph glyph-name="n_uni0304" horiz-adv-x="929" 
d="M404 934l117 146l319 -231l-30 -118l-13 -322v-6q0 -49 30 -80.5t68 -47.5l-200 -244q-74 58 -113.5 103t-39.5 185v21l7 370q0 42 -128 140l-40 -63l-19 -378v-6q0 -49 30 -80.5t69 -47.5l-200 -244l-211 171q57 69 57 138l8 454q0 48 -74 96l151 190zM49 1181v156h759
v-156h-759z" />
    <glyph glyph-name="longs_j" horiz-adv-x="904" 
d="M545 1199q-87 30 -136 36q-35 -50 -52 -75q44 -93 44 -278q0 -21 -3 -140.5t-7 -307.5q-2 -187 -274 -853q-31 31 -78 41q68 248 82 533t14 472.5t-4 332.5q-2 82 -81 146q86 91 151 182.5t151 185.5q100 -2 262 -52q38 -12 40 -12zM699 1397q117 -33 179 -45
q-45 -56 -97.5 -106.5t-97.5 -104.5q-30 18 -96 42zM475 887l151 190l224 -105q-11 -41 -23.5 -80t-19.5 -104.5t-7 -155t-2 -175.5t-48 -283t-199 -572q-32 31 -106 49q65 235 81 479t20 487l3 174q0 48 -74 96z" />
    <glyph glyph-name="longs_k" horiz-adv-x="1206" 
d="M1031 259q-172 -190 -222 -244q-174 132 -294 225q109 96 111 204l3 275h-94l95 180l1 150q0 65 -7 88t-61 54t-158 44q-35 -50 -51 -75q43 -92 43 -277q0 -21 -3 -141t-7 -308q-2 -185 -273 -853q-32 31 -79 41q69 248 82.5 531.5t13.5 471t-4 335.5q-2 82 -81 146
q86 91 150.5 173.5t150.5 175.5q115 0 341 -41l223 121q-25 -103 -30 -234l160 160l195 -246l-237 -280h198l-113 -216h-210l-3 -282q0 -75 13 -93t147 -85zM876 1180q-1 -39 -1 -78v-167h49l112 131q-20 131 -104 161z" />
    <glyph glyph-name="longs_h" horiz-adv-x="1417" 
d="M1031 259q-172 -190 -222 -244q-74 56 -147.5 112.5t-146.5 112.5q68 59 89 109t22 95l5 605q-2 113 -49 131q-73 42 -177 55q-35 -50 -51 -75q43 -92 43 -277q0 -21 -3 -141t-7 -308q-2 -185 -273 -853q-32 31 -79 41q69 248 82.5 531.5t13.5 471t-4 335.5
q-2 82 -81 146q86 91 150.5 173.5t150.5 175.5q115 0 341 -41l223 121q-27 -120 -31.5 -249t-4.5 -262v-93l195 149q279 -265 279 -602q0 -374 -291 -821l-149 47q225 247 225 565q0 336 -260 562l-3 -394q0 -75 14 -85t146 -93z" />
    <glyph glyph-name="longs_longs_i" horiz-adv-x="1307" 
d="M304 1455q128 0 390 -50q29 34 61 69q126 -3 277 -53l-152 -203q-38 13 -68 17q-35 -50 -52 -75q44 -93 44 -278q0 -21 -3 -140.5t-7 -307.5q-2 -187 -274 -853q-31 31 -78 41q68 248 82 533t14 472.5t-4 332.5q-2 82 -81 146q38 40 72 81q-69 36 -163 48
q-35 -50 -51 -75q43 -92 43 -277q0 -21 -3 -141t-7 -308q-2 -185 -273 -853q-32 31 -79 41q69 248 82.5 531.5t13.5 471t-4 335.5q-2 82 -81 146q86 91 150.5 173.5t150.5 175.5zM1082 1406q83 -26 155 -54q-45 -56 -97.5 -106.5t-97.5 -104.5q-38 23 -77 40.5t-45 20.5z
M874 890l151 190l224 -105q-11 -41 -25.5 -80t-14.5 -80l-14 -406v-6q0 -49 30 -80.5t69 -47.5l-200 -244l-211 171q57 69 57 138l8 454q0 48 -74 96z" />
    <glyph glyph-name="longs_l" horiz-adv-x="1005" 
d="M365 1497q60 -6 329 -57l177 95q-27 -120 -31.5 -249t-4.5 -262l-4 -587q0 -75 14 -85t146 -93q-112 -124 -222 -244q-174 132 -294 225q109 96 111 204l5 605q0 105 -5 157q-75 41 -172 53q-18 -27 -53 -77q19 -41 29 -101l15 -252q0 -94 -4 -190.5t-5 -180.5
q-4 -188 -275 -853q-37 37 -82 49q68 246 82 531t14 473t-4 333q-2 81 -81 145q86 91 157.5 180t157.5 181z" />
    <glyph glyph-name="longs_longs_l" horiz-adv-x="1480" 
d="M356 1455q121 0 396 -51q30 35 47 51q100 0 313 -38l59 -10l177 95q-27 -120 -31.5 -249t-4.5 -262l-4 -587q0 -75 14 -85t146 -93q-112 -124 -222 -244q-174 132 -294 225q109 96 111 204l5 605q0 104 -5 157q-87 46 -206 62l-52 -75q44 -93 44 -281q0 -19 -2.5 -138
t-6.5 -307q-7 -192 -275 -853q-31 31 -79 41q69 248 83.5 534t14.5 474t-4 330q-3 81 -81 146q48 54 75 84q-73 35 -160 45q-35 -50 -52 -75q44 -93 44 -278q0 -21 -3 -140.5t-7 -307.5q-2 -187 -274 -853q-31 31 -78 41q68 248 82 533t14 472.5t-4 332.5q-2 82 -81 146
q86 91 150.5 173.5t150.5 175.5z" />
    <glyph glyph-name="f_j" horiz-adv-x="933" 
d="M561 794q0 15 -9 35h-147q0 -94 -4 -190.5t-5 -180.5q-4 -188 -275 -853q-37 37 -82 49q68 246 82 531t14 473t-4 333q-2 81 -81 145q86 91 157.5 180t157.5 181q103 -12 317 -61l-132 -213q-86 29 -136 36q-18 -27 -53 -77q19 -41 29 -101h249v-1l223 -105
q-11 -41 -25.5 -80t-18 -120t-3.5 -155t-2 -160t-48 -283t-199 -572q-32 31 -106 49q65 235 81 479t20 487v174zM918 1387q-90 -112 -180 -220q-62 22 -144 42l132 218q117 -26 192 -40z" />
    <glyph glyph-name="longs_longs_k" horiz-adv-x="1640" 
d="M356 1455q121 0 396 -51q30 35 47 51q118 0 340 -41l223 121q-25 -103 -30 -234l160 160l195 -246l-237 -280h198l-113 -216h-210l-3 -282q0 -75 13 -93t147 -85q-172 -190 -222 -244q-174 132 -294 225q109 96 111 204l3 275h-94l95 180l1 150q0 65 -7 88t-46 45
q-67 38 -172 53l-52 -75q44 -93 44 -281q0 -19 -2.5 -138t-6.5 -307q-7 -192 -275 -853q-31 31 -79 41q69 248 83.5 534t14.5 474t-4 330q-3 81 -81 146q48 54 75 84q-73 35 -160 45q-35 -50 -52 -75q44 -93 44 -278q0 -21 -3 -140.5t-7 -307.5q-2 -187 -274 -853
q-31 31 -78 41q68 248 82 533t14 472.5t-4 332.5q-2 82 -81 146q86 91 150.5 173.5t150.5 175.5zM1327 1180q-1 -39 -1 -78v-167h49l112 131q-20 131 -104 161z" />
    </font>
</defs>
</svg>
